<?xml version="1.0" encoding="UTF-8" standalone="no"?>
<svg
   viewBox="0 0 448 448"
   version="1.1"
   id="svg1"
   sodipodi:docname="fb.svg"
   width="448"
   height="448"
   inkscape:version="1.4.2 (ebf0e940, 2025-05-08)"
   xmlns:inkscape="http://www.inkscape.org/namespaces/inkscape"
   xmlns:sodipodi="http://sodipodi.sourceforge.net/DTD/sodipodi-0.dtd"
   xmlns="http://www.w3.org/2000/svg"
   xmlns:svg="http://www.w3.org/2000/svg">
  <defs
     id="defs1" />
  <sodipodi:namedview
     id="namedview1"
     pagecolor="#7627ff"
     bordercolor="#000000"
     borderopacity="0.25"
     inkscape:showpageshadow="2"
     inkscape:pageopacity="0.0"
     inkscape:pagecheckerboard="0"
     inkscape:deskcolor="#d1d1d1"
     inkscape:zoom="1.8571429"
     inkscape:cx="224.26923"
     inkscape:cy="223.99999"
     inkscape:window-width="2008"
     inkscape:window-height="1639"
     inkscape:window-x="1000"
     inkscape:window-y="25"
     inkscape:window-maximized="0"
     inkscape:current-layer="svg1" />
  <!-- Font Awesome Free 5.15.4 by @fontawesome - https://fontawesome.com License - https://fontawesome.com/license/free (Icons: CC BY 4.0, Fonts: SIL OFL 1.1, Code: MIT License) -->
  <path
     d="M 400,0 H 48 A 48,48 0 0 0 0,48 v 352 a 48,48 0 0 0 48,48 H 185.25 V 295.69 h -63 V 224 h 63 v -54.64 c 0,-62.15 37,-96.48 93.67,-96.48 27.14,0 55.52,4.84 55.52,4.84 v 61 h -31.27 c -30.81,0 -40.42,19.12 -40.42,38.73 V 224 h 68.78 l -11,71.69 H 262.75 V 448 H 400 a 48,48 0 0 0 48,-48 V 48 A 48,48 0 0 0 400,0 Z"
     id="path1"
     style="fill:#f4d0d0;fill-opacity:1" />
</svg>
