<svg xmlns="http://www.w3.org/2000/svg" xml:space="preserve" width="763.535" height="961.375"><path d="M-563.037 1729.904c-10.888-18.528-19.762-27.625-28.153-28.86l-3.937-.599-7.15-9.114c-6.872-8.763-7.866-10.96-12.476-27.585-2.002-7.219-2.655-7.347-14.714-2.876-9.58 3.552-20.636 11.412-30.428 21.634l-4.202 4.388-7.957-.297c-4.375-.166-10.859.55-14.407 1.586l-6.451 1.883-3.606-4.506c-5.82-7.271-8.544-9.11-17.43-11.763-18.626-5.563-24.932-5.121-30.686 2.15-4.977 6.288-7.556 7.233-16.367 5.995l-6.234-.877-5.156-5.145c-2.836-2.831-7.85-8.196-11.142-11.924s-7.742-8.006-9.888-9.51l-3.902-2.734-23.059-2.522-23.058-2.523-6.2-8.633c-7.735-10.771-15.35-25.847-18.12-35.871l-2.115-7.654-7.817-5.23c-13.06-8.737-25.39-15.275-28.62-15.175-1.673.051-7.754.696-13.511 1.43l-10.468 1.333-6.713-5.49-6.712-5.489-5.24 1.258c-2.881.691-7.463 2.302-10.181 3.578s-5.062 2.128-5.209 1.893c-.481-.772 1.323-75.519 3.506-145.273.44-14.069 1.34-52.407 2.532-107.774.24-11.2.52-22.784.62-25.743.483-14.164 2.358-115.604 3.72-201.32 1.845-115.953 2.296-131.768 3.773-132.754 1.26-.84 33.153-2.345 57.895-2.732 8.609-.133 21.634-.485 28.944-.778 7.31-.295 20.867-.583 30.127-.645 24.707-.164 27.177-.219 61.464-1.357 17.26-.573 34.148-1.476 37.526-2.006 7.707-1.211 11.315-.728 16.2 2.167 2.123 1.26 8.98 3.917 15.236 5.904s15.137 5.703 19.733 8.26c4.597 2.555 13.636 7.015 20.086 9.91l11.727 5.264 4.228 4.79c4.494 5.09 12.8 9.544 19.575 10.496l4.113.578 7.747-5.033 7.747-5.034 1.567 1.721c.863.947 2.872 3.947 4.466 6.665l2.897 4.943-10.452 1.85-10.452 1.85-7.394 5.211c-9.715 6.846-9.534 8.706.995 10.234l3.617.508 8.402-4.816 8.403-4.815 15.444 2.17 15.445 2.171 8.688 5.64c5.604 3.637 10.976 6.143 15.133 7.058l6.445 1.418 5.887-3.677c3.238-2.022 12.117-5.694 19.732-8.159s17.855-6.075 22.754-8.022 13.97-4.942 20.158-6.655l11.25-3.114 7.173 2.306 7.173 2.306 14.457.018c19.106.024 36.66-9.146 52.255-27.297 19.156-22.294 49.901-41.582 101.04-63.382 8.084-3.446 18.16-7.824 22.393-9.728 4.232-1.905 16.486-6.857 27.23-11.005l19.534-7.542 1.744 1.467c1.225 1.03 1.871 6.096 2.172 17.023.236 8.556.95 33.47 1.587 55.366s1.472 50.668 1.855 63.938 1.01 33.902 1.393 45.85c.384 11.948.72 23.62.749 25.937.027 2.316.393 13.18.812 24.143.418 10.961.803 22.64.855 25.95.052 3.312.423 16.463.823 29.226l.728 23.204-2.616 2.184c-3.446 2.877-8.754 4.68-12.307 4.18-3.788-.532-5.443 1.164-8.029 8.229l-2.155 5.887 3.814 7.293c4.591 8.78 5.687 14.299 7.096 35.746l1.078 16.418-4.75 9.83c-2.613 5.405-7.023 17.62-9.8 27.14l-5.048 17.313-1.505 16.734c-1.728 19.212-2.317 20.964-7.505 22.305l-3.802.984.291 4.36c.505 7.558-6.115 47.12-9.302 55.589l-2.903 7.716-12.911 10.486c-13.15 10.68-19.746 17.315-28.293 28.464-5.06 6.6-22.204 20.37-31.484 25.288l-5.513 2.921-3.28-1.218c-1.803-.672-6.459-3.237-10.346-5.702-12.402-7.868-22.896-.657-27.872 19.149l-1.634 6.504-6.443 1.973c-15.854 4.853-19.467 8.669-23.823 25.153l-2.654 10.047-5.07 6.838c-5.51 7.43-6.286 9.557-4.138 11.332.771.637 2.831 3.598 4.579 6.58l3.177 5.424-3.981 4.676c-2.19 2.572-5.87 7.823-8.179 11.67-2.308 3.845-4.922 7.533-5.809 8.194l-1.611 1.2-.776-1.91c-.426-1.051-2.808-5.981-5.293-10.956l-4.518-9.045-4.885-3.39c-2.686-1.864-6.268-3.585-7.959-3.822l-3.075-.432-6.072 7.858c-3.34 4.321-7.625 10.342-9.522 13.379l-3.449 5.522-1.248 8.235c-.851 5.613-2.007 9.085-3.63 10.904-1.31 1.468-3.82 6.09-5.577 10.274l-3.194 7.605 1.553 2.377c2.258 3.455 3.01 9.528 2.746 22.162l-.236 11.175-2.494 2.082c-1.371 1.145-4.946 3.092-7.944 4.325-6.816 2.806-8.13 4.605-9.266 12.69l-.91 6.467-5.125 5.078c-8.015 7.941-13.956 10.508-30.864 13.336-13.315 2.227-13.837 2.095-17.682-4.447zm23.884-24.557 3.626-1.273 1.955-7.855c2.39-9.6 5.836-14.77 12.818-19.23 6.33-4.04 6.134-3.308 3.264-12.244l-2.298-7.157 1.273-8.231 1.273-8.231 4.46-8.384c2.452-4.612 5.562-12.798 6.911-18.193l2.454-9.809 6.216-9.345c17.182-25.827 27.708-33.377 43.52-31.213l7.19.965 4.488-6.277a40.3 40.3 0 0 0 6.338-13.845c4.396-17.957 13.936-30.169 28.42-36.376 2.988-1.281 5.542-3.108 5.676-4.06.839-5.967 13.49-21.53 24.177-29.744 9.58-7.362 20.704-7.581 33.86-.666l6.992 3.675 5.304-4.122c2.917-2.268 9.57-9.302 14.784-15.633 9.82-11.922 12.45-14.454 27.224-26.22l8.794-7 3.668-21.306c2.018-11.718 3.506-23.47 3.307-26.115-.554-7.366 5.426-22.061 9.751-23.96.592-.265 1.5-5.668 2.018-12.017l.942-11.543 5.985-20.184c3.292-11.102 7.667-23.89 9.723-28.42l3.738-8.236-1.003-11.804c-1.051-12.372-3.11-20.165-8.123-30.738l-3.006-6.341 1.189-8.332c.796-5.579 2.547-11.119 5.297-16.765l4.109-8.434 7.026-5.308 7.026-5.309-.058-6.928c-.059-6.927-.461-20.132-1.167-38.321-.207-5.315-.548-16.447-.76-24.736-.463-18.25-.638-23.65-1.445-44.657-.568-14.762-1.016-31.233-1.299-47.64-.414-24.053-2.834-90.293-3.322-90.941-.627-.833-16.9 4.639-17.068 5.74-.052.34-5.535 2.834-12.182 5.534s-22.61 9.857-35.472 15.903l-23.386 10.995-15.395 11.789c-8.467 6.484-18.64 15.388-22.608 19.787-8.758 9.71-33.018 28.287-42.707 32.704-10.615 4.84-41.904 6.17-54.84 2.33l-4.792-1.422-7.456 1.878c-7.436 1.873-16.89 5.373-29.25 10.828-3.587 1.584-8.938 3.369-11.892 3.966s-8.343 2.756-11.977 4.797-8.602 4.44-11.04 5.33l-4.433 1.623-11.186-1.618c-11.597-1.675-15.192-3.048-27.436-10.512l-7.265-4.43-6.452-.58-6.452-.579-6.126 3.445c-3.37 1.895-9.005 3.973-12.523 4.617l-6.396 1.171-8.554-2.003c-19.325-4.524-28.646-14.327-28.31-29.772l.132-6.095-3.274-3.31c-1.801-1.82-7.916-5.38-13.59-7.911s-12.742-6.092-15.708-7.914c-19.912-12.23-42.365-14.812-97.396-11.198-3.001.194-14.663.468-25.916.603-11.252.136-26.435.454-33.74.708-7.304.255-25.207.69-39.783.969-14.577.278-28.06.603-29.964.722l-3.462.219-.324 7.94c-.179 4.368-.485 20.354-.68 35.525a9815 9815 0 0 1-.952 57.535c-.328 16.474-.785 42.631-1.011 58.128a14533 14533 0 0 1-2.824 144.377c-.63 25.682-1.244 53.169-1.364 61.082-.12 7.912-.625 28.926-1.123 46.698s-1.129 43.364-1.402 56.872c-.271 13.508-.884 35.318-1.359 48.467-1.25 34.646-1.216 36.71.634 37.945.907.605 4.438 2.877 7.849 5.049l6.2 3.948 5.412-1.085c2.976-.597 8.642-.907 12.591-.688l7.18.4 12.794 7.195c29.475 16.578 35.244 21.993 40.516 38.027 1.67 5.08 5.322 13.53 8.115 18.774l5.078 9.538 17.769 1.8 17.768 1.801 6.434 2.503c7.639 2.971 14.16 7.933 22.5 17.122l6.126 6.747 3.207-2.583c1.763-1.42 5.75-3.363 8.857-4.317l5.65-1.735 11.846 1.197c15.41 1.556 32.773 6.697 40.014 11.847 3 2.134 6.975 4.093 8.832 4.354l3.378.473 14.495-10.892 14.496-10.892 13.252-4.432 13.252-4.43 7.567 1.063c14.251 2.002 20.686 8.9 25.704 27.551 3.575 13.286 6.251 17.298 12.846 19.255 6.233 1.85 16.06 10.515 23.796 20.987 6.276 8.493 7.042 8.923 12.469 7.018z" style="fill:#000;stroke-width:4.4967" transform="translate(964.424 -774.951)"/><path d="M-866.078 774.956c-.295-.296-3.751 13.543-7.681 30.752-8.701 38.102-6.97 34.973-18.258 32.945-18.622-3.346-46.545-7.034-50.398-6.658-3.77.367-2.975 1.262 14.668 16.51 23.646 20.437 23.307 20.034 19.197 22.912-10.638 7.446-49.369 41.637-47.158 41.629.704-.003 13.28-2.394 27.947-5.313 36.594-7.284 32.665-8.684 32.67 11.65.006 23.735 1.59 63.006 2.539 62.965.434-.018 7.014-10.517 14.62-23.332 16.473-27.749 12.37-27.444 26.376-1.967 14.972 27.234 13.814 28.987 16.006-24.181l.86-20.85 10.009 6.078c48.624 29.52 86.523 72.827 103.723 118.522 4.833 12.842 6.255 11.923-19.803 12.82-52.867 1.82-91.779 11.2-101.994 24.586l-3.674 4.813-.817 70.521-.818 70.522-4.43 4.57c-2.796 2.885-6.184 4.85-9.183 5.328-98.54 15.7-89.253 104.259 18.38 175.271 3.032 2 3.032 2 3.684 84.666 1.109 140.43-1.68 134.431 67.01 144.21 4.358.62 4.47.786 3.682 5.548-.447 2.7-.818 10.325-.826 16.944l-.014 12.033-13.223 2.256c-31.876 5.44-66.741 20.163-73.451 31.02-16.785 27.158 35.83 42.335 83.973 24.222 13.113-4.934 14.61-4.821 14.7 1.101.096 6.243 1.052 6.217 27.95-.755 14.207-3.683 26.231-6.944 26.72-7.246.49-.303-2.586-19.602-6.835-42.885-4.25-23.284-7.492-42.567-7.207-42.852.738-.738 42.049-3.363 42.699-2.713.297.297-2.866 21.034-7.027 46.084s-7.13 45.982-6.598 46.514c.871.871 54.042 11.128 57.904 11.17.884.01 2.007-2.12 2.496-4.73.543-2.894 1.516-4.507 2.49-4.133 7.684 2.948 25.751 7.99 33.971 9.478 26.095 4.725 41.438-3.153 41.438-21.275 0-18.275-19.79-31.413-70.522-46.82-1.445-.44-1.665-2.364-1-8.73.47-4.49.854-13.165.854-19.276 0-11.051.021-11.117 3.668-11.866 17.555-3.606 30.458-8.627 43.332-16.86l6.334-4.05V1426.69l3.418-2.24c25.966-17.014 60.189-64.127 68.814-94.735 16.297-57.827-24.744-120.575-65.629-100.341l-6.97 3.449.847-42.22c1.922-95.73 1.76-110.361-1.267-114.499-9.804-13.403-55.549-24.472-110.711-26.79l-22.135-.93-4.959-14c-17.403-49.122-59.081-98.362-107.84-127.407-10.824-6.448-10.95-6.377 9.168-5.258l17.4.97-6.84-10.776c-8.294-13.066-9.48-11.177 13.985-22.287 10.662-5.048 19.385-9.585 19.385-10.084 0-.772-30.097-8.476-43.666-11.176-5.392-1.073-6.716 3.46 10.334-35.377 8.066-18.375 14.666-33.725 14.666-34.111 0-3.623-50.736 28.006-62.715 39.097-9.745 9.023-8.07 10.863-16.62-18.26-3.91-13.322-7.352-24.464-7.648-24.76m302.541 502.152c.398-.027.972.7 1.795 1.746 1.486 1.889 3.885 3.81 5.332 4.27s2.633 1.914 2.633 3.232c0 3.257 4.67 8.962 9.063 11.067 5.707 2.735 4.36 4.588-7.496 10.322-6.105 2.952-11.354 5.369-11.666 5.369s-.569-8.482-.569-18.848c0-13.104 0-17.096.908-17.158m-278.13 10.762c.963-.043.963 1.978.963 8.447v9.408h-21.387l2.693-5.281c1.482-2.904 2.694-6.203 2.694-7.332 0-1.486 1.39-2.053 5.037-2.053 2.77 0 6.37-.934 8-2.076.926-.649 1.562-1.094 2-1.113" style="display:inline;fill:#000" transform="translate(964.424 -774.951)"/><path d="M-596.736 1713.414c-6.6-1.726-17.056-5.02-23.235-7.32l-11.234-4.181-1.64.63-1.64.628-.918 4.18-.918 4.18-1.714.658-1.713.658-15.16-2.845c-8.34-1.565-15.634-3.303-16.21-3.863l-1.049-1.018 7.382-44.145c4.06-24.28 7.382-45.678 7.382-47.552v-3.406h-5.482c-3.016 0-19.366.937-36.334 2.082l-30.85 2.082-.993.977-.993.977 7.89 42.608 7.89 42.608-1.037 1.072c-1.501 1.554-24.48 7.717-26.257 7.042l-1.5-.569-.872-5.773c-.48-3.175-1.353-6.541-1.939-7.48l-1.065-1.709-11.408 6.069c-6.274 3.337-15.827 7.625-21.229 9.528l-9.821 3.46-15.17.687-15.169.688-7.497-1.663c-4.124-.915-9.147-2.509-11.164-3.542l-3.667-1.879v-5.083l3.667-2.578c2.017-1.418 5.678-3.606 8.136-4.863l4.47-2.284 8.864 6.087c4.875 3.347 10.496 7.399 12.491 9.003l3.629 2.917 3.371-1.537 3.372-1.536v-7.836l-7.573-6.644-7.574-6.643 11.24-3.582 11.24-3.582 15.814-2.185 15.814-2.185 1.017-2.7 1.018-2.7.502-26.667.502-26.667-15.333-1.655c-8.433-.91-20.133-2.604-26-3.764l-10.667-2.109-5.221-2.902-5.222-2.903-2.363-4.667-2.362-4.666-1.36-13.334-1.36-13.333-.61-78.506-.609-78.506 2.026 2.026c1.115 1.115 3.34 5.84 4.944 10.499l2.917 8.472 2.341.451 2.34.45 2.08-1.724 2.078-1.725-.785-5.723-.784-5.723-2.75-5.389c-1.511-2.964-4.897-7.767-7.523-10.674l-4.775-5.285-12.834-8.867c-19.445-13.434-36.787-27.663-50.879-41.742l-12.71-12.7-4.835-7.376-4.833-7.376-2.273-7.817-2.272-7.817.533-12.14.533-12.141 4.152-8.869 4.153-8.868 5.33-5.33c2.93-2.93 7.991-6.889 11.246-8.796l5.917-3.468 10.432-2.668 10.431-2.668h11.66l4.507 1.883c2.478 1.036 5.76 3.136 7.29 4.667l2.784 2.783v13.007l-1.982 1.645-1.982 1.644-4.351-.72c-2.394-.395-6.002-1.131-8.019-1.636l-3.666-.917v2.331c0 1.283 1.24 4.34 2.758 6.794l2.757 4.463-.424 3.695-.425 3.694-3.64.42-3.641.42-5.18-5.61-5.179-5.61-1.515.937-1.515.936.847 9.117.847 9.117-.847 3.377c-.466 1.857-1.79 4.318-2.94 5.47l-2.094 2.093h-11.652l-.896-1.45-.896-1.449 1.515-1.514 1.514-1.515 4.517.39 4.517.389.957-3.014.956-3.014-3.578-3.078-3.579-3.078h-8.118l-4.533 4.533-4.533 4.533v10.729l3.448 4.099 3.45 4.098 6.884 1.887 6.884 1.888 17.625.786 17.625.786 7.709 2.856 7.708 2.856 6 6.318c3.3 3.474 7.234 7.97 8.743 9.992l2.743 3.674 2.924-1.564 2.923-1.565v-6.282l-4.41-6.4-4.412-6.402-6.083-4.078c-3.346-2.243-7.96-5.1-10.255-6.349l-4.173-2.271v-36.03l2.653-1.42 2.653-1.42 2.229-4.294 2.229-4.294v-14.666l-2.214-4.265-2.214-4.264-5.001-3.682a812 812 0 0 0-5.557-4.069c-.306-.213-.206-.737.222-1.165l.778-.778 5.93 2.623 5.931 2.624 3.763 4.716 3.763 4.715 2.752 7.773 2.751 7.772 3.182.45 3.182.45 1.13-1.784c.622-.98 1.14-3.283 1.15-5.116l.019-3.334-3.79-8-3.792-8-5.462-4.924c-3.004-2.709-7.447-5.935-9.874-7.17-2.428-1.234-4.667-2.472-4.977-2.75-.722-.647-.079-115.45.653-116.634l.55-.89 8.178 3.304 8.178 3.303 15.012 3.18c8.257 1.749 22.156 4.109 30.887 5.245l15.876 2.065 27.281 1.115 27.282 1.115 25.563-1.071 25.563-1.072 17.103-2.195 17.104-2.195 14-3.756c7.7-2.066 15.27-4.16 16.821-4.655l2.821-.899-.154 245.104-.154 245.103-6.667 3.634c-3.667 1.998-10.202 4.84-14.522 6.315l-7.856 2.681-11.117 1.555-11.118 1.556-.612 2.135c-.336 1.174-1.027 15.154-1.534 31.066l-.922 28.93 3.84.875c2.113.48 10.392 2.761 18.4 5.069l14.558 4.195.438 1.333.438 1.333-7.446 3.891-7.446 3.891-2.073 3.164-2.073 3.164 1.494 3.278 1.494 3.279h6.91l5.6-3.852c6.522-4.488 13.927-6.797 21.834-6.807l5.62-.01 4.62 4.056 4.619 4.056.924 4.205.923 4.206-3.57 3.072-3.572 3.071-8.259-.066-8.259-.066zm-103.638-337.396c2.452-4.4 5.79-9.354 7.42-11.008l2.962-3.009 3.967-1.138 3.966-1.137 6.438 1.635 6.438 1.634 3.557 2.635c1.956 1.448 4.947 4.677 6.646 7.175 1.7 2.498 3.962 5.03 5.027 5.625l1.937 1.084 2.721-.863 2.721-.864 1.332-2.922 1.331-2.922-1.323-3.481c-.728-1.914-3.278-5.707-5.667-8.427l-4.343-4.947-7.08-3.995-7.079-3.996v-7.677l3.667-1.907c7.212-3.752 12.736-12.06 14.322-21.54.487-2.909 1.12-6.037 1.406-6.953l.52-1.666 4.627 2.207 4.626 2.206 3.416-2.238 3.416-2.239v-6.192l-2.333-1.971c-1.284-1.085-7.948-5.413-14.81-9.62l-12.476-7.647-.838.838c-.46.46-.864 7.846-.897 16.412l-.059 15.575-2.357 4.39-2.358 4.391-3.333 1.268-3.333 1.267-4.427-1.85-4.427-1.85-3.466-4.543c-4.994-6.548-9.548-17.535-12.19-29.411-1.264-5.686-2.81-10.654-3.435-11.04l-1.137-.703-8.393 7.129-8.393 7.129-3.842 6.214-3.842 6.215 2.204 3.364 2.204 3.363h5.792l3.632-3.48 3.632-3.478 4.628 10.017 4.628 10.017 5.513 5.98 5.514 5.982 4.036 1.672 4.037 1.672-.404 3.35-.403 3.35-5.213 1.797c-10.336 3.561-19.673 13.29-24.245 25.262l-2.268 5.938 1.54 3.378 1.538 3.378 4.277-.417 4.276-.418zm-115.696-90.755v-8.662l2.072-.795 2.072-.795 5.376 2.425 5.376 2.424 2.219-1.4 2.219-1.399v-6.27l-4.302-2.899-4.301-2.898-4.702-.882-4.702-.882-4.47 2.121-4.47 2.121-1.86 3.49-1.86 3.488.13 8.674.13 8.674 2.994 2.424 2.994 2.424 2.542-1.36 2.543-1.362zm99.497-11.253 3.46-5.227 5.61-2.716 5.609-2.715h18.877l8.839 2.73c4.861 1.501 13.626 5.045 19.477 7.874l10.637 5.144 2.777-.726 2.776-.726 1.358-2.98 1.358-2.979-1.523-2.845-1.522-2.844-8.948-4.461c-4.922-2.454-11.798-5.531-15.282-6.839l-6.333-2.377.018-3.486c.01-1.917 1.742-8.44 3.85-14.496l3.833-11.011 5.58-8.564 5.579-8.564 6.237-5.81c3.43-3.195 9.953-8.06 14.496-10.81l8.26-5 .814-2.565.814-2.565-1.406-2.626-1.405-2.627-2.66-.844-2.661-.845-6.662 3.626c-9.69 5.274-21.052 14.825-28.222 23.725l-6.266 7.779-4.638 9.522c-4.18 8.585-7.132 17.274-9.492 27.943l-.83 3.753-2.655-.42-2.655-.42-4.43-12.916-4.428-12.915-5.402-9.085c-2.97-4.996-7.883-11.9-10.916-15.342l-5.514-6.259-7.356-3.598-7.355-3.599-5.14 1.54-5.14 1.54-4.105 4.675c-4.392 5.002-5.966 9.204-5.253 14.02l.443 3 2.127 1.333 2.127 1.332 3.371-.846 3.371-.846 1.646-3.973c.905-2.185 2.438-4.63 3.406-5.434l1.76-1.46 3.867 1.998 3.865 2 4.676 5.75c8.325 10.242 18.451 31.164 18.451 38.124v2.31l-6.408 2.94-6.408 2.94-4.923 4.781c-2.708 2.63-5.873 6.618-7.034 8.863l-2.11 4.081.814 3.248.816 3.247 2.96 1.118 2.96 1.118 2.352-1.233c1.294-.678 3.909-3.585 5.811-6.46m152.012 127.073-.842-.842v-72.476l2.63-2.38c1.447-1.31 10.853-7.253 20.903-13.207s18.484-11.479 18.742-12.276l.469-1.449-5.372-2.11-5.372-2.11.01-1.774c0-.976 1.485-4.174 3.292-7.107l3.285-5.334.042-2.974.042-2.975-3.556-.892-3.555-.893-5.002 5.866-5.001 5.866-.937-.937-.936-.936.803-3.063.803-3.062 6.69-7.774 6.69-7.775v-2.292c0-2.837-2.528-5.492-5.23-5.492h-2.031l-8.235 8.162-8.235 8.161-1.467-.907-1.468-.907v-5.6l8.776-8.395 8.776-8.396-.454-2.392-.454-2.393-3.323-.39-3.322-.39-5.944 6.057-5.944 6.057h-3.444v-2.053c0-1.13 1.205-4.417 2.68-7.306l2.68-5.253 4.204-2.174 4.205-2.175 7.056.585 7.056.585 6.393 3.922 6.392 3.922 5.63 8.371 5.628 8.371 3.537 10.936 3.536 10.935.08 14.667.078 14.667-2.288 9.271-2.288 9.272-5.776 12.062c-9.221 19.252-26.931 42.443-42.703 55.917l-7.082 6.05zm-315.874-469.256c-.385-.628-.124-11.566.579-24.307s.962-23.99.574-25l-.704-1.835-3.709.01c-2.04.004-8.696 1.204-14.793 2.666s-11.381 2.657-11.745 2.657c-2.118 0 2.524-3.82 12.325-10.142l11.172-7.207v-5.347l-10.177-10.652c-5.598-5.859-9.615-10.652-8.928-10.652.688 0 8.925 2.142 18.307 4.76s17.37 4.445 17.754 4.06c.852-.85 2.233-8.379 4.37-23.82l1.616-11.667h2.15l3.4 14.17c1.871 7.793 3.765 14.533 4.21 14.977l.808.809 4.833-5.978c9.03-11.17 34.36-33.31 38.109-33.31 1.865 0 .565 3.353-9.155 23.626l-10.035 20.93.596 1.555.597 1.555 11.772.909c14.403 1.112 20.44 2.093 20.44 3.322 0 .513-5.428 2.668-12.062 4.788l-12.06 3.855-1.34 1.614-1.34 1.613 5.4 4.997c2.971 2.748 5.401 5.412 5.401 5.92v.922l-11 .848c-6.05.467-13.7 1.64-17 2.606l-6 1.757.267 20.925.266 20.924h-1.081c-.595 0-3.715-6.295-6.933-13.987l-5.852-13.988-1.656-.012-1.655-.013-7.286 14.333c-4.007 7.883-7.837 15.147-8.51 16.142l-1.226 1.81z" style="display:inline;fill:#f8eb00" transform="translate(964.424 -774.951)"/><path d="M-739 1109.283c-44.385-3.503-77.695-10.359-90.31-18.588l-4.975-3.246-.887-3.537-.888-3.537 1.321-2.127c.727-1.17 3.313-3.483 5.747-5.14l4.426-3.014 8.782-2.723c18.663-5.786 58.428-10.536 88.492-10.57l11.708-.013.58 1.667c.318.916 1.857 5.155 3.419 9.42l2.84 7.754 3.166 1.442 3.166 1.442 2.152-1.786 2.152-1.786-.446-9.41-.446-9.41 13.333.405c28.833.876 64.06 5.442 84.367 10.935l10.3 2.786 6.625 3.604 6.625 3.603 1.962 3.514 1.963 3.513-2.365 3.608-2.364 3.61-8.223 3.822-8.223 3.822-12.128 2.68c-6.67 1.474-19.57 3.656-28.666 4.85l-16.54 2.171-40 .383c-22 .21-43 .146-46.666-.144z" style="display:inline;fill:#d62722" transform="translate(964.424 -774.951)"/></svg>