<svg xmlns="http://www.w3.org/2000/svg" width="448" height="448"><path d="M400 0H48C21.49 0 0 21.49 0 48v352c0 26.51 21.49 48 48 48h352c26.51 0 48-21.49 48-48V48c0-26.51-21.49-48-48-48M178.117 230.104C87.429 164.287 88.353 164.121 64 145.167V120c0-13.255 10.745-24 24-24h272c13.255 0 24 10.745 24 24v25.167c-24.371 18.969-23.434 19.124-114.117 84.938-10.5 7.655-31.392 26.12-45.883 25.894-14.503.218-35.367-18.227-45.883-25.895M384 185.775V328c0 13.255-10.745 24-24 24H88c-13.255 0-24-10.745-24-24V185.775c13.958 10.794 33.329 25.236 95.303 70.214 14.162 10.341 37.975 32.145 64.694 32.01 26.887.134 51.037-22.041 64.72-32.025 61.958-44.965 81.325-59.406 95.283-70.199" style="fill:#f4d0d0;fill-opacity:1"/></svg>