<svg xmlns="http://www.w3.org/2000/svg" xml:space="preserve" width="3670.165" height="3670.165" viewBox="0 0 946.034 946.034"><g transform="translate(125.413 703.927)"><circle cx="230.91" cy="-347.604" r="473.017" style="fill:#000;stroke-width:.372607" transform="scale(1 -1)rotate(90)"/><circle cx="230.91" cy="-347.604" r="457.417" style="fill:#fff;stroke-width:.360318" transform="scale(1 -1)rotate(90)"/><circle cx="347.604" cy="-230.91" r="435.963" style="display:inline;fill:#c20202;fill-opacity:1;stroke-width:.924633"/><circle cx="-230.91" cy="-347.604" r="295.95" style="display:inline;fill:#fff;fill-opacity:1;stroke-width:.186715" transform="rotate(90)"/><circle cx="347.604" cy="-230.91" r="274.716" style="display:inline;fill:#000;fill-opacity:1;stroke-width:.312965"/><path d="m342.452 520.867-1.34 1.235c-3.667 3.376-6.538 5.98-8.26 7.491-1.048.919-4.171 3.73-6.94 6.247-3.826 3.477-5.182 4.516-5.645 4.32-.335-.142-2.522-1.219-4.859-2.393-3.965-1.993-6.904-3.279-10.743-4.701-.873-.324-1.905-.755-2.293-.96s-2.61-.965-4.94-1.69c-2.327-.726-4.47-1.409-4.762-1.518-.699-.264-.852-.307-3.528-.978-1.26-.316-2.61-.706-2.998-.866-.756-.313-5.919-1.255-8.82-1.61-.97-.119-2.081-.352-2.469-.52-3.243-1.395-39.77-1.363-41.257.037-.184.174-.899.322-1.587.33-2.577.026-13.914 2.383-17.304 3.596-.291.105-1.244.371-2.117.594-1.764.449-5.768 1.899-7.937 2.874-5.393 2.425-9.423 4.53-11.52 6.016-.515.365-1.137.664-1.382.664s-1.614-.728-3.043-1.619c-4.002-2.494-11.77-6.142-13.079-6.142-.277 0-1.004-.23-1.615-.51-2.724-1.249-11.372-1.854-28.452-1.989-5.142-.04-9.587-.19-9.878-.332-.29-.141-9.22-.372-19.844-.512l-19.314-.254v74.5l19.651.09 19.652.092.245.882c.135.485.262 22.515.28 48.956l.036 48.075-.817.31c-2.536.965-10.506 8.607-12.812 12.286-.698 1.115-1.655 2.6-2.126 3.303-.47.701-1.485 2.924-2.254 4.938-3.989 10.45-4.042 21.223-.155 31.339 1.55 4.034 1.55 4.034 3.973 7.779 1.832 2.832 9.453 10.936 10.284 10.936.19 0 1.388.729 2.662 1.62l2.316 1.618-.11 57.03c-.093 48.863-.182 57.22-.621 58.353l-.513 1.323H97.232v76.906l24.782-.005c24.626-.005 32.269-.25 38.012-1.212 5.04-.845 8.612-1.604 9.256-1.966.336-.19.875-.344 1.196-.344.648 0 5.198-1.267 6.305-1.756.388-.172 1.299-.493 2.024-.715.724-.222 1.409-.55 1.52-.73s.439-.327.729-.327c.63 0 8.58-3.867 9.246-4.498.256-.243.653-.443.882-.446s2.718 1.14 5.531 2.541c2.813 1.4 5.592 2.735 6.174 2.965s1.674.681 2.428 1.003c2.024.864 4.798 1.746 11.683 3.712 2.657.759 9.752 1.775 12.453 1.784.912.003 1.896.16 2.187.348.335.218 12.288.313 32.632.26l32.103-.085.09-38.188.09-38.188h-22.803c-21.936 0-22.844-.026-23.907-.683-2.2-1.359-3.868-4.829-4.273-8.882-.124-1.24-.375-2.57-.558-2.959-.206-.435-.298-20.144-.24-51.505l.095-50.8 44.009-.09c34.852-.07 44.009-.18 44.008-.529-.001-.242-.547-1.313-1.214-2.38a435 435 0 0 1-3.018-4.939c-.993-1.65-2.825-4.665-4.07-6.702s-2.431-4.022-2.634-4.41c-.531-1.018-1.367-2.422-6.878-11.559-2.717-4.504-5.058-8.482-5.204-8.84-.26-.643.234-1.639 3.444-6.941a154 154 0 0 1 2.173-3.474c.549-.843 1.157-1.795 1.35-2.113a296 296 0 0 1 1.938-3.053c.871-1.36 1.695-2.739 1.83-3.064.136-.324.69-1.277 1.232-2.116.54-.84 1.146-1.793 1.344-2.118 1.253-2.062 4.099-6.699 6.281-10.237 1.4-2.27 3.249-5.285 4.109-6.702.86-1.418 1.788-2.846 2.063-3.173.972-1.158.194-1.345-5.609-1.345-3.673 0-5.568-.123-5.426-.353.12-.194.579-.352 1.02-.352s.908-.106 1.037-.235 1.672-.597 3.43-1.042c1.757-.444 4.1-1.234 5.204-1.756 7.233-3.413 9.447-4.704 12.817-7.47 1.354-1.112 3.09-2.469 3.855-3.016s1.67-1.4 2.008-1.896 1.154-1.477 1.813-2.18c.66-.703 2.129-2.549 3.266-4.101s2.226-3.014 2.418-3.249c.193-.234.35-.56.35-.724s.449-1.007.998-1.873c1.036-1.634 3.788-8.05 4.376-10.206.186-.679.549-1.71.807-2.293.422-.954 1.416-4.967 1.791-7.232.255-1.536.494-2.932.908-5.292.513-2.927.492-17.319-.03-20.813l-.555-3.704c-.412-2.744-1.479-7.526-1.889-8.467-.169-.388-.902-2.61-1.63-4.939-.727-2.328-1.641-4.948-2.031-5.82-1.948-4.361-4.632-9.638-5.74-11.283-1.303-1.938-1.48-2.85-.864-4.482.372-.988 2.357-3.286 2.838-3.286.14 0 1.837-1.19 3.774-2.646s3.643-2.645 3.791-2.645 1.078-.621 2.066-1.38a93 93 0 0 1 4.09-2.91c1.359-.908 2.333-1.82 2.39-2.237.062-.446-.846-1.856-2.469-3.836-1.412-1.722-2.726-3.384-2.92-3.695-.29-.465-4.249-5.506-7.244-9.226-1.87-2.32-6.554-8.381-6.867-8.883-.372-.597-4.463-5.752-9.13-11.504-1.528-1.884-3.147-3.981-3.597-4.66a37 37 0 0 0-1.523-2.117zm-87.45 81.587c.285 0 .618.084 1.084.252.652.236 1.926.429 2.83.429h1.645l-.574 1.323c-1.225 2.82-1.513 3.53-2.542 6.262-1.384 3.671-2.76 8.1-3.069 9.878-.135.776-.365 1.57-.512 1.763-.69.914-2.156 12.985-2.163 17.816-.004 2.613.643 9.285 1.11 11.465 2.138 9.96 7.533 19.128 15.107 25.671a269 269 0 0 1 2.885 2.518c.734.669 6.284 4.443 6.533 4.443.112 0 1.03.528 2.04 1.173 1.008.645 2.628 1.465 3.598 1.824.97.358 1.922.765 2.117.902.999.71 5.394 2.19 9.495 3.197 2.539.625 4.767 1.268 4.951 1.43.184.16-12 .293-27.076.293h-27.41v-41.34c0-45.696-.088-43.875 2.23-46.623 1.151-1.365 2.7-1.97 5.094-1.987.633-.005 1.46-.201 1.838-.437.27-.168.505-.252.79-.252" style="display:inline;fill:#fff" transform="translate(110.887 -975.664)"/><path d="M228.546 950.643c-.97-.074-1.914-.283-2.099-.466-.184-.182-.745-.331-1.246-.331-.5 0-1.779-.242-2.84-.537s-3.495-.932-5.41-1.416c-1.914-.483-3.899-1.087-4.41-1.342l-2.103-1.054c-.646-.325-1.343-.59-1.548-.59-.567 0-6.307-2.837-7.507-3.71-.583-.424-1.813-1.126-2.734-1.56-.922-.435-1.676-.935-1.676-1.112 0-.176-.176-.321-.39-.321s-.992-.476-1.727-1.058-1.508-1.059-1.718-1.059-.642-.397-.96-.882c-.794-1.21-1.33-1.112-2.874.529-.73.776-1.522 1.41-1.76 1.411-.238 0-.7.41-1.028.909-.39.596-.817.85-1.242.738-.436-.114-.648.022-.649.415 0 .51-3.193 2.67-3.981 2.693-.153.004-.42.24-.596.523-.175.283-1.16.812-2.192 1.176-1.03.364-2.39.846-3.02 1.071s-1.146.53-1.146.676-.358.271-.794.278c-.437.006-1.095.239-1.463.517-.368.28-.812.42-.986.312s-.551 0-.838.238c-.288.238-.623.332-.746.21-.123-.124-.426-.057-.673.149-.248.205-2.088.687-4.09 1.07-2.002.384-3.957.773-4.345.865s-1.5.299-2.47.46-1.922.337-2.116.39c-.194.051-.512.06-.706.016-.785-.172-2.843.072-3.157.376-.195.188-8.063.324-18.786.324h-18.45v-43.363l14.729-.102 14.728-.103 1.588-.939c2.11-1.248 4.675-3.867 5.578-5.695 1.49-3.018 2.183-4.816 2.183-5.673 0-.484.14-.968.312-1.074.713-.44 1.228-5.885 1.254-13.254.01-2.813-.021-30.48-.069-61.48l-.086-56.365-.97-.4c-.534-.219-1.13-.421-1.323-.45-.194-.028-1.147-.427-2.117-.886-.97-.46-1.843-.861-1.94-.894-.902-.303-1.782-.788-2.824-1.556-1.386-1.023-2.414-1.69-3.12-2.023-.65-.309-3.934-3.618-3.934-3.966 0-.155-.313-.565-.697-.912s-.8-.96-.928-1.361c-.128-.402-.45-.948-.715-1.213s-.482-.79-.482-1.163c0-.375-.159-.68-.353-.68s-.353-.222-.353-.491c0-.27-.314-1.183-.698-2.029s-.7-2.044-.705-2.663c-.004-.62-.167-1.224-.36-1.344-.408-.252-.489-7.332-.089-7.73.146-.146.448-1.164.671-2.264.737-3.626 2.796-8.283 4.052-9.164.361-.254.657-.606.657-.782 0-.442 1.72-2.16 4.105-4.103 2.033-1.656 7.374-4.615 9.704-5.377.823-.269 1.361-.7 1.495-1.199.114-.428.164-25.226.109-55.106-.074-40.299-.207-54.764-.516-56.017-.506-2.051-2.182-5.545-3.621-7.547-1.083-1.508-3.511-3.64-4.145-3.64-.194 0-.444-.238-.556-.53-.111-.29-.427-.529-.7-.529s-1.112-.27-1.863-.598c-2-.877-2.013-.878-15.92-1.12l-12.788-.222-.088-20.01-.087-20.009 3.88-.099c2.135-.054 4.437.004 5.116.13.679.127 10.204.34 21.167.473 10.962.135 20.09.363 20.284.507s1.008.295 1.808.333c1.53.073 1.728.105 4.542.735 1.757.394 9.066 3.797 9.29 4.325.065.153.274.278.466.278s1.101.635 2.022 1.41c.92.777 1.785 1.412 1.921 1.412.326 0 5.469 5.253 6.525 6.664.451.603 1.027 1.097 1.28 1.097s1.074-.752 1.825-1.672c1.798-2.2 4.57-5.027 4.947-5.045.165-.008.849-.484 1.52-1.059.672-.574 1.413-1.044 1.647-1.044s.478-.142.543-.315c.126-.339 1.82-1.409 3.821-2.415.68-.342 1.288-.74 1.353-.886.064-.145.305-.264.534-.264s.989-.307 1.688-.682c.986-.528 1.373-.587 1.722-.264.35.322.395.317.203-.023-.158-.28.11-.582.742-.834a128 128 0 0 0 1.872-.765c1.135-.478 1.682-.63 3.087-.854.63-.1 1.146-.325 1.146-.497 0-.173.328-.314.73-.314.4 0 1.038-.167 1.418-.37.942-.504 6.453-1.747 8.603-1.94.965-.086 2.263-.325 2.884-.53 1.25-.412 8.656-1.273 14.94-1.737 5.22-.385 14.854-.386 18.698 0 4.758.475 10.322 1.313 11.357 1.71.522.2 1.792.462 2.822.58 2.732.316 5.284.902 6.811 1.563.388.169 2.849.975 5.468 1.792 2.62.817 5.408 1.784 6.197 2.149s1.622.663 1.852.663.42.12.42.265c.003.145.995.567 2.206.938 1.21.37 2.598.934 3.083 1.252 1.102.723 5.9 3.03 6.973 3.352.478.144.703.408.56.657-.13.228-.11.3.046.16.156-.142 1.332.324 2.614 1.034s2.687 1.46 3.122 1.668c.435.206.792.495.794.64s.178.265.393.265c.214 0 .861.396 1.438.882 1.276 1.073 2.25 1.126 2.772.149.216-.404.61-.65.877-.548.279.107.418.006.33-.237-.085-.232.336-.82.936-1.305s1.907-1.709 2.906-2.72c.999-1.01 2.339-2.223 2.978-2.694s2.345-1.99 3.792-3.374 2.63-2.425 2.63-2.312.369-.224.818-.747l.818-.951 1.33 1.621c.73.892 1.237 1.77 1.126 1.95s.112.41.497.51.803.452.928.78c.126.328.684 1.094 1.239 1.702s1.098 1.386 1.208 1.73c.109.343.425.625.703.625s.506.171.506.38c0 .21 1.205 1.803 2.679 3.54 2.668 3.145 2.97 3.943 1.677 4.44-.635.243-1.357.812-2.777 2.186-.48.465-.874.73-.874.59s-.436.274-.97.92c-.533.645-1.09 1.226-1.235 1.29s-.264.308-.264.54-.516.915-1.147 1.517c-1.107 1.058-2.348 3.75-3.583 7.77-.613 1.996-.77 7.483-.242 8.493.176.337.51 1.327.742 2.2s.62 2.064.86 2.646.48 1.217.533 1.411c.052.194.593.981 1.201 1.75 1.389 1.752 2.042 2.994 1.79 3.402-.108.174-.047.316.134.316.266 0 1.91 3.209 1.988 3.88.012.098.377.752.813 1.454s.791 1.685.791 2.184.149 1 .33 1.112.327.478.323.814.237 1.246.536 2.022.551 1.689.56 2.028c.009.34.16.618.335.618s.432.833.569 1.852c.137 1.018.37 2.01.518 2.204.245.32.685 2.912.96 5.645.29 2.885.493 13.673.268 14.206-.141.336-.302 1.246-.357 2.022-.104 1.464-.42 3.844-.634 4.762-.836 3.608-2.754 9.285-3.29 9.736-.253.214-.37.477-.262.586.11.109-.534 1.627-1.43 3.373-1.568 3.059-2.647 4.686-4.602 6.943a67 67 0 0 0-1.812 2.205c-.491.63-1.049 1.146-1.238 1.146s-.745.476-1.235 1.058-1.054 1.059-1.253 1.059c-.2 0-.906.476-1.569 1.058s-1.438 1.058-1.722 1.058c-.829 0-1.025.08-1.399.566-.492.64-5.865 3.33-6.217 3.112-.159-.098-.774.072-1.368.38-.593.306-1.222.469-1.397.36a.385.385 0 0 0-.524.138c-.113.184-1.117.432-2.23.552s-2.26.345-2.551.499c-1.032.546-8.177.697-11.995.253-3.015-.35-8.678-1.496-9.287-1.878-.228-.143-.706-.212-1.062-.153s-.912-.126-1.234-.41c-.323-.285-1.103-.628-1.734-.762-.63-.134-1.147-.39-1.147-.568 0-.179-.119-.295-.264-.26-.472.118-2.91-1.077-2.91-1.425 0-.186-.318-.255-.706-.153-.41.107-.706.01-.706-.23 0-.228-.14-.328-.313-.222-.172.107-.509-.043-.748-.332-.24-.289-.642-.525-.893-.525-.25 0-.51-.119-.574-.265-.065-.145-.827-.726-1.693-1.29-2.018-1.313-8.479-7.57-8.479-8.21 0-.269-.238-.58-.53-.69-.29-.113-.842-.862-1.225-1.665-.383-.804-.84-1.7-1.017-1.991-.29-.477-.572-1.113-1.493-3.351-.16-.389-.575-1.817-.923-3.175-1.334-5.206-.582-20.758 1.166-24.108.27-.517.491-1.16.492-1.43.002-.53 1.59-5.65 2.199-7.094l.814-1.94c.242-.583.76-1.773 1.15-2.646.391-.874 1.072-2.461 1.513-3.528s1.33-2.75 1.974-3.741c.644-.99 1.172-1.948 1.172-2.129 0-.303 2.066-3.734 2.732-4.537.16-.194.505-.87.765-1.503.437-1.065.402-1.256-.468-2.572-.517-.781-1.374-1.692-1.903-2.024-.53-.332-1.489-1-2.132-1.486-.643-.485-1.315-.902-1.493-.926a2 2 0 0 1-.5-.132 3 3 0 0 0-.44-.163 9 9 0 0 1-.794-.301c-.946-.405-4.715-1.3-5.472-1.3-.406 0-.888-.148-1.072-.329-1.403-1.376-22.444-1.386-23.926-.011-.17.156-.527.2-.794.098-.268-.102-.486-.01-.486.204 0 .215-.24.39-.534.39s-.81.142-1.147.315-1.01.49-1.494.703c-1.28.563-2.253 1.212-2.576 1.717-.155.242-.413.44-.574.44-.755 0-5.67 5.741-5.67 6.622 0 .149-.366.823-.813 1.499-.447.675-.99 1.863-1.205 2.64l-.79 2.822c-1.13 4.024-1.194 6.678-1.318 55.21-.069 26.872-.039 49.216.067 49.653l.192.794 38.71.027c21.292.016 38.513.108 38.27.206s-.44.385-.44.638c0 .544-.886 2.32-1.309 2.621-.162.116-.577.653-.92 1.193s-.763.896-.931.792-.264.09-.211.43c.052.34-.2.997-.56 1.46s-.656.993-.656 1.177-.455.997-1.012 1.805c-1.494 2.167-3.221 5.133-3.221 5.53 0 .192-.15.348-.334.348s-.75.834-1.257 1.852-1.389 2.438-1.959 3.155-1.036 1.407-1.036 1.536-.485.952-1.077 1.83c-.926 1.372-1.028 1.738-.724 2.609.194.557.242 1.018.107 1.023-.136.006.033.174.374.373.342.198.85.908 1.129 1.576.28.669.674 1.216.878 1.216s.374.198.378.44c.004.243.633 1.474 1.398 2.735s1.8 3.055 2.3 3.986c.502.932 1.54 2.599 2.307 3.705.768 1.105 1.396 2.195 1.396 2.422 0 .226.135.464.298.529.164.065.522.533.794 1.041.273.509.856 1.58 1.297 2.382l.8 1.457H228.02l-.089 57.047c-.049 31.376.033 58.403.182 60.06.482 5.348.883 8.26 1.436 10.422.298 1.164.703 2.756.9 3.536.403 1.594 2.824 6.63 3.275 6.812.16.065.291.31.291.545s.782 1.273 1.737 2.307c.955 1.033 1.695 2.058 1.645 2.277s-.02.266.067.105c.086-.161.576.097 1.088.574s1.884 1.385 3.048 2.016 2.315 1.305 2.558 1.497.44.231.44.087.2-.107.442.083c.925.727 3.374.831 18.873.805l15.964-.026v42.706l-24.783-.064c-13.63-.035-25.576-.124-26.547-.198z" style="display:inline;fill:#c20202;fill-opacity:1" transform="translate(110.887 -975.664)"/><path d="m933.177-304.077 30.168 12.347-5.893 14.398-70.13-28.703 20.164-49.267 12.048 4.93-14.272 34.87 15.868 6.494 12.587-30.756 12.048 4.931zm-6.7-83.266 65.187 38.637-7.933 13.383-65.186-38.637zm59.787-6.37 23.013 19.335-10.008 11.91-58.017-48.744 26.143-31.116q6.195-7.373 13.433-7.927 8.133-.631 15.426 5.496 10.533 8.85 6.036 21.936 6.885-3.753 11.148-2.245 3.099 1.083 16.728 11.843 3.39 2.71 6.81 1.437l2.188 1.838-10.757 12.802q-4.82-1.008-11.302-6.455-1.62-1.361-3.903-3.417l-2.35-1.974q-6.887-5.787-13.082 1.587zm-9.966-8.374 12.118-14.423q3.812-4.538 3.852-7.546-.026-3.754-4.32-7.362-4.133-3.472-7.754-2.782-3.105.57-6.85 5.027l-12.118 14.423zm65.36-51.655 11.84 15.593 32.703-24.834 7.873 10.368-45.093 34.241-45.827-60.348 43.576-33.09 7.873 10.367-31.186 23.681 10.368 13.655 28.91-21.954 7.873 10.368zm99.643-77.24-13.492 6.124q-8.22-10.68-20.169-5.256-8.962 4.069-10.543 13.387-1.3 8.145 3.424 18.553 5.337 11.757 13.341 15.562 6.936 3.244 14.645-.256 6.65-3.018 9.026-8.281t.12-12.026l13.78-6.256q5.013 12.834-.844 23.745-4.997 9.475-17.043 14.943-15.419 7-28.799.056-11.567-6.023-18.523-21.345-7.962-17.54-2.7-31.55 4.534-12.287 18.026-18.412 15.997-7.262 29.044-.283 6.454 3.462 10.707 11.295m42.317 10.113 5.787 29.494-15.267 2.995-14.589-74.358 39.88-7.825q9.45-1.854 15.434 2.257 6.729 4.612 8.562 13.958 2.65 13.501-9.063 20.868 7.716 1.398 10.089 5.247 1.733 2.787 5.594 19.717.94 4.238 4.401 5.392l.55 2.804-16.409 3.22q-3.12-3.81-4.75-12.118-.407-2.077-.894-5.11l-.591-3.011q-1.732-8.828-11.183-6.974zm-2.506-12.774 18.486-3.627q5.815-1.14 7.733-3.459 2.336-2.938 1.256-8.443-1.04-5.296-4.292-7.03-2.775-1.505-8.487-.385l-18.486 3.627zm111.514 19.152-28.342-1.1-5.667 15.032-15.863-.616 29.8-74.677 17.238.669 23.288 76.737-16.074-.624zm-3.725-13.172-8.686-29.993-11.09 29.226zm108.173-.28-14.273-3.977q.567-13.465-12.075-16.988-9.481-2.642-16.68 3.482-6.231 5.405-9.3 16.415-3.465 12.438.222 20.497 3.229 6.942 11.384 9.215 7.035 1.96 12.238-.545t7.82-9.137l14.578 4.062q-4.407 13.055-15.905 17.651-9.918 4.048-22.661.497-16.312-4.546-22.101-18.464-4.993-12.048-.476-28.258 5.17-18.555 18.207-25.908 11.37-6.5 25.642-2.523 16.923 4.716 22.436 18.447 2.719 6.8.944 15.535m23.645 39.114-12.236 22.138-13.616-7.526 36.657-66.32 13.616 7.526-16.127 29.177 42.062-14.842 16.117 8.908-42.26 13.886 8.382 53.97-16.302-9.01-5.497-41.25zm72.333 38.951-13.035 14.61 30.64 27.338-8.665 9.713-42.25-37.695 50.448-56.543 40.828 36.427-8.666 9.713-29.22-26.07-11.414 12.794 27.087 24.167-8.666 9.713zm50.802 56.295-24.465 17.46-9.037-12.663 61.68-44.02 23.607 33.08q5.595 7.84 4.325 14.987-1.418 8.033-9.171 13.566-11.199 7.992-22.748.372 1.916 7.604-.608 11.356-1.822 2.73-15.642 13.243-3.47 2.607-3.09 6.237l-2.326 1.66-9.714-13.611q2.18-4.416 9.07-9.334 1.724-1.23 4.283-2.927l2.499-1.783q7.322-5.225 1.727-13.065zm10.596-7.562 10.943 15.334q3.443 4.824 6.347 5.612 3.64.912 8.206-2.346 4.394-3.136 4.629-6.814.223-3.15-3.159-7.887l-10.943-15.334zm67.772 104.822-5.65-13.468q10.352-5.145 4.498-19.101-2.333-5.563-5.97-7.94-3.595-2.279-7.401-.682-3.709 1.555-4.417 5.066-.708 3.51 1.103 11.932l2.535 11.79q2.198 10.44-.449 16.715t-10.845 9.713q-11.224 4.708-20.682-1.424-8.283-5.248-13.564-17.838-6.018-14.346-2.533-24.645 3.015-8.954 13.017-13.838l5.854 13.956q-10.799 5.448-4.535 20.38 2.783 6.636 6.681 9.362 4.037 2.783 8.233 1.023 4.1-1.72 5.075-5.686 1.016-3.87-.646-11.665l-2.24-10.537q-2.51-11.457-.237-17.804 2.411-6.29 10.414-9.647 10.833-4.544 19.712 1.028 7.745 4.785 12.657 16.496 5.936 14.151 2.483 23.978-3.082 8.522-13.093 12.836" aria-label="FIRECRACKERS" style="font-weight:700;font-size:105.833px;line-height:0;font-family:Almarai;-inkscape-font-specification:&quot;Almarai Bold&quot;;text-align:center;letter-spacing:0;text-anchor:middle;fill:#fff;stroke-width:.264583" transform="translate(-918.756 -54.797)"/><circle cx="-17.72" cy="-198.872" r="16.162" style="fill:#fff;fill-opacity:1;stroke-width:.264583"/><circle cx="711.816" cy="-198.707" r="16.162" style="display:inline;fill:#fff;fill-opacity:1;stroke-width:.264583"/><path d="m1269.014-132.928-7.645-12.244q9.26-9.308 2.489-20.152-5.079-8.134-14.28-8.465-8.034-.211-17.479 5.687-10.67 6.662-13.318 14.88-2.243 7.113 2.126 14.11 3.768 6.034 9.155 7.654t11.63-1.427l7.808 12.506q-11.751 6.487-23.04 2.231-9.79-3.61-16.616-14.543-8.738-13.992-3.748-27.805 4.332-11.943 18.238-20.626 15.917-9.94 30.123-6.654 12.447 2.803 20.093 15.046 9.065 14.518 3.999 28.013-2.516 6.677-9.535 11.789m5.936 32.495-13.855 13.11 27.497 29.057-9.211 8.717-37.915-40.066 53.621-50.741 36.639 38.718-9.212 8.716-26.22-27.709-12.133 11.48 24.308 25.688-9.212 8.717zm58.198 91.373 4.946-58.84-29.27 41.81-12.417-8.693 42.339-60.475 12.754 8.929-4.81 57.927 28.797-41.134 12.416 8.693-42.338 60.475zm88.654-22.529-24.637 55.958-13.872-6.107 24.637-55.958-20.571-9.057 5.11-11.607 54.07 23.806-5.11 11.607zm34.896 45.415-6.436 28.566-14.786-3.332 16.228-72.017 38.624 8.703q9.153 2.062 12.87 8.079 4.185 6.756 2.145 15.808-2.946 13.076-16.282 15.038 6.328 4.28 6.93 8.643.45 3.166-2.765 19.775-.829 4.147 1.804 6.537l-.612 2.716-15.892-3.581q-1.284-4.623.53-12.67.452-2.011 1.21-4.906l.658-2.916q1.926-8.55-7.227-10.612zm2.788-12.371 17.904 4.034q5.633 1.269 8.253-.043 3.237-1.701 4.439-7.032 1.156-5.13-1.062-7.955-1.882-2.432-7.414-3.679l-17.904-4.034zm100.88 39.088-27.629-.417-5.173 14.771-15.464-.233 27.3-73.42 16.804.254 24.454 74.2-15.67-.236zm-3.932-12.742-9.152-29.011-10.127 28.72zm46.161-50.231 10.658 60.205 34.823-6.165 2.211 12.488-49.748 8.806-12.868-72.693zm91.101-29.451q14.141-6.756 27.011-1.821 13.97 5.324 21.393 20.86 7.334 15.35 2.786 29.75-4.154 13.069-18.388 19.869-14.328 6.845-27.105 1.865-14.059-5.51-21.393-20.86-7.333-15.35-2.786-29.75 4.248-13.113 18.482-19.913m5.6 11.722q-8.93 4.267-10.714 13.689-1.484 8.136 3.094 17.718 5.245 10.978 13.898 14.5 7.508 3.04 15.323-.693 8.931-4.267 10.622-13.645 1.483-8.136-3.095-17.718-5.244-10.978-13.897-14.5-7.509-3.04-15.23.649m91.674-25.345L1767.877-47.5l20.603 26.426-11.953 9.32-45.39-58.22 11.953-9.32 16.99 21.792 23.01-17.94-16.989-21.792 12.034-9.383 45.39 58.22-11.952 9.32zm6.696-62.925 53.88 50.466-10.362 11.062-53.88-50.466zm26.937-36.705q8.736-13.01 22.327-15.31 14.735-2.526 29.03 7.072 14.124 9.484 17.536 24.194 3.073 13.364-5.721 26.461-8.851 13.182-22.385 15.397-14.906 2.41-29.03-7.074t-17.536-24.193q-3.015-13.45 5.779-26.547m10.785 7.242q-5.517 8.218-2.259 17.236 2.863 7.76 11.68 13.68 10.1 6.781 19.342 5.41 8.01-1.203 12.838-8.393 5.518-8.217 2.202-17.15-2.863-7.76-11.68-13.68-10.1-6.782-19.341-5.41-8.011 1.202-12.782 8.307" aria-label="CENTRAL OHIO" style="font-weight:700;font-size:103.105px;line-height:0;font-family:Almarai;-inkscape-font-specification:&quot;Almarai Bold&quot;;text-align:center;letter-spacing:10.3105px;text-anchor:middle;fill:#fff;stroke-width:.257763" transform="translate(-1202.244 115.573)"/></g></svg>