<svg xmlns="http://www.w3.org/2000/svg" xml:space="preserve" width="1047.008" height="237" viewBox="0 0 277.021 62.706"><g style="fill:#3f4443;fill-opacity:1"><path d="M156.633 121.444v2.381c0 1.31-.099 2.381-.219 2.381s-.507-.314-.86-.699c-2.8-3.053-8.589-4.671-13.209-3.693-3.503.741-6.99 2.93-8.462 5.311l-.554.896-2.04-2.06c-2.46-2.483-4.567-3.589-7.958-4.175-2.68-.463-5.585-.204-8.045.716-1.97.737-4.422 2.564-5.651 4.211l-.985 1.32-1.554-1.696c-1.832-2-3.88-3.305-6.384-4.073-1.673-.512-2.438-.556-9.856-.556h-8.042v4.835l-1.29-1.206c-2.54-2.376-5.982-3.63-9.944-3.626-3.768.005-6.805 1.057-9.237 3.198l-1.225 1.078v-4.279h-24.87v2.382c0 1.31-.04 2.38-.088 2.38-.049 0-.61-.481-1.248-1.07-1.603-1.48-4.828-3.04-7.039-3.406-1.28-.212-8.804-.278-25.624-.226l-23.813.073-.067 31.154-.067 31.155H-6.35v-25.665h5.556v25.665l26.79-.001c14.733 0 28.664-.079 30.956-.174l4.167-.172v-4.421l1.521 1.239c2.796 2.278 5.766 3.267 9.803 3.261 3.676-.005 6.735-1.074 9.147-3.197l1.225-1.078v4.279h52.122v-4.693l.945.89c3.056 2.883 8.2 4.316 12.738 3.55 2.256-.38 5.17-1.713 6.63-3.032.578-.522 1.125-.949 1.217-.949.091 0 .166.972.166 2.16v2.158l35.918-.173c19.754-.096 36.423-.175 37.041-.175l1.125-.001v-4.504l1.42 1.157c2.772 2.258 5.926 3.347 9.692 3.347 1.249 0 2.97-.182 3.826-.405 4.891-1.274 8.684-5.117 9.407-9.53.335-2.048.334-14.073-.002-16.127-.78-4.763-5.384-9.184-10.644-10.219l-1.541-.303.072-4.132.073-4.131 6.151-.07 6.152-.072-.002-2.575c-.003-5.353-.954-7.932-3.944-10.7-3.016-2.792-5.94-3.913-10.21-3.913-4.203 0-7.335 1.222-10.022 3.908-.818.818-1.49 1.553-1.491 1.634s-.107.308-.232.505c-.17.27-.711-.126-2.179-1.597-1.151-1.156-2.611-2.303-3.563-2.8-3.263-1.706-1.862-1.642-36.025-1.646zm42.509 3.175h3v4.498h-9.79v21.166h9.79v4.498h-9.79v21.167h9.79v4.498h-17.198v-55.478l5.599-.175c3.08-.096 6.949-.174 8.599-.174m14.112.145c5.579.012 6.05.051 7.5.624 2.254.89 4.108 2.513 5.134 4.495l.86 1.66v8c0 9.138-.083 9.628-1.997 11.757l-1.154 1.284.873.846c.48.466 1.16 1.407 1.51 2.091l.636 1.245.074 11.84.074 11.84h-7.424v-12.017c0-6.61-.074-12.21-.165-12.445-.27-.704-1.567-1.203-3.13-1.203h-1.468v25.665h-7.408v-27.65c0-15.206.03-27.737.066-27.847.036-.109 2.745-.192 6.02-.185m28.31.004c2.29-.015 2.667.056 4.234.81 3.672 1.766 5.317 4.066 5.508 7.703l.114 2.186h-7.474v-2.526c0-2.328-.05-2.576-.65-3.175-.837-.837-2.42-.884-3.416-.101l-.697.548v18.974l.647.509c.437.344 1.26.56 2.539.667 3.388.285 6.544 2.234 8.067 4.985l.786 1.418.08 7.989c.05 4.967-.024 8.375-.195 9.011-.659 2.448-2.988 4.818-5.779 5.881-1.632.622-4.48.873-6.073.536-1.89-.4-3.447-1.234-4.94-2.645-1.825-1.726-2.55-3.362-2.62-5.905l-.052-1.902 3.77-.074 3.77-.073v2.634c0 2.53.028 2.655.697 3.182.384.302 1.044.548 1.469.548.946 0 2.21-.625 2.432-1.202.09-.236.165-4.532.165-9.547v-9.12l-.66-.61c-.501-.465-1.098-.651-2.506-.782-1.016-.095-2.505-.418-3.309-.719-1.934-.723-4.138-2.756-5.089-4.692l-.74-1.506v-8.07c0-7.93.011-8.093.63-9.46.834-1.847 3.228-4.06 5.248-4.854 1.194-.47 2.084-.605 4.045-.618m-81.227.116h7.404l.068 12.766.07 12.766 1.232.08c1.585.102 3.057-.507 3.399-1.407.16-.42.263-5.3.263-12.448v-11.757h7.434l-.079 11.575c-.076 11.178-.098 11.618-.644 12.8-.311.672-1.015 1.719-1.564 2.326l-.997 1.104.94.98c.516.54 1.22 1.516 1.563 2.171l.623 1.19.079 11.709.079 11.707h-7.419l-.073-12.163-.074-12.164-.594-.594c-.475-.474-.967-.615-2.448-.698l-1.853-.105v25.724h-7.409zm-38.83.027c.921.033 1.85.184 2.758.463 3.02.928 5.705 3.467 6.43 6.077.175.63.271 9.458.272 24.984l.001 24.011h-7.408V159.28h-4.756l-.07 10.65-.069 10.649-3.652.051c-2.708.039-3.684-.033-3.778-.278-.07-.18-.093-11.218-.052-24.525l.074-24.196.656-1.323c1.718-3.47 5.598-5.541 9.593-5.397m-49.68.066c2.715-.02 5.46.966 7.524 3.037 1.734 1.741 2.237 2.921 2.358 5.534l.102 2.183h-7.463v-2.525c0-2.329-.05-2.576-.65-3.175-.902-.903-2.56-.903-3.463 0l-.65.65v44.233l.65.65c.902.902 2.56.902 3.463 0 .6-.6.65-.847.65-3.176v-2.525h7.463l-.102 2.183c-.064 1.393-.275 2.539-.583 3.168-1.918 3.922-6.795 6.14-11.47 5.218-2.671-.527-5.562-2.606-6.776-4.874l-.57-1.065v-43.391l.723-1.23c1.868-3.179 5.305-4.868 8.795-4.894m-31.743.04h17.119v4.232l-4.92.072-4.923.073v21.154h9.747l.096 1.919c.053 1.055.05 2.067-.007 2.249-.077.248-1.307.33-4.97.33H47.36v21.167h9.748l.096 2.05c.052 1.128.054 2.14.005 2.25-.05.109-3.954.198-8.675.198h-8.585l.068-27.847zm46.567 0h12.435l1.753.83c2.324 1.1 3.756 2.443 4.741 4.444l.81 1.647-.08 8.313-.08 8.313-.759 1.37c-.417.753-1.097 1.694-1.51 2.09l-.752.72 1.156 1.285c1.995 2.22 1.997 2.235 1.997 15.22v11.462h-7.408v-24.366l-.65-.65c-.556-.556-.895-.649-2.378-.649h-1.73l-.068 12.767-.069 12.766-3.643.073c-2.767.056-3.673-.008-3.772-.264-.071-.187-.099-12.721-.061-27.855zm59.002.003c2.594-.003 3.069.071 4.366.687 1.947.924 3.686 2.517 4.629 4.242.667 1.22.776 1.707.785 3.5l.01 2.084-3.638.092-3.638.093V133.2c0-2.31-.053-2.57-.64-3.156-.35-.352-.968-.723-1.372-.824-.97-.243-2.535.593-2.78 1.486-.29 1.051-.272 43.26.018 44.023.595 1.565 3.161 1.877 4.233.514.452-.575.54-1.071.54-3.033v-2.346h7.477l-.123 2.05c-.15 2.514-.941 4.218-2.719 5.856-1.973 1.818-3.769 2.51-6.751 2.597-1.568.047-2.912-.057-3.572-.275-2.588-.854-4.762-2.617-5.91-4.793l-.704-1.334v-42.333l.742-1.512c.867-1.766 2.54-3.336 4.649-4.368 1.346-.657 1.765-.728 4.398-.73zm-130.307.103 6.416.08c6.315.077 6.44.089 7.918.782 1.919.9 3.777 2.614 4.673 4.312l.704 1.334v8.335c0 7.955-.025 8.39-.565 9.557-.311.672-1.006 1.71-1.544 2.305l-.977 1.083.94.967c.517.533 1.211 1.52 1.543 2.193.597 1.21.604 1.359.682 12.933l.079 11.707H27.78v-24.048l-.63-.731c-.555-.646-.85-.745-2.513-.839l-1.884-.106v25.724h-7.408v-55.588m-8.467.025h3.704v55.563H3.175v-55.563zm-24.606 0H-.53v4.234h-9.79v21.431h9.79v4.233h-9.79v25.665h-7.408zm111.919 2.91v18.257h1.468c.807 0 1.805-.174 2.217-.387.411-.213.822-.58.913-.815.09-.236.164-3.802.164-7.926s-.074-7.69-.164-7.926c-.27-.704-1.568-1.202-3.13-1.202zm120.385 0v17.993h1.684c1.303 0 1.842-.124 2.381-.549l.698-.548v-7.835c0-7.68-.012-7.848-.576-8.448-.492-.524-.835-.612-2.38-.612zm-93.383.055c-.618-.019-1.241.134-1.699.494l-.697.548v20.885l2.315-.077 2.315-.076.074-9.922c.04-5.457.009-10.188-.07-10.512-.196-.807-1.208-1.31-2.238-1.34m-98.44.21v17.992h1.864c1.627 0 1.947-.083 2.514-.65l.65-.649v-15.393l-.65-.65c-.567-.567-.887-.65-2.514-.65zm178.33 4.017 1.984.084.07 7.342.07 7.342h-6.887v-14.514l1.389-.168c.764-.093 2.282-.132 3.373-.086m-142.876.2v14.833h-6.887l.07-7.342.07-7.342 3.374-.074zm-64.558.28h5.556v14.553H-6.35V132.82m153.458 6.086h9.525v27.517h-9.525zm-69.165.21c2.559-.042 4.702-.028 4.762.033.06.06.11 6.222.11 13.692v13.582H73.29v-27.228zm151.44 12.502h.008c.074.006.593.604 1.152 1.33 1.713 2.22 4.87 4.073 8.134 4.774l1.3.278v8.159h-9.26v-3.656c0-4.394-.316-6.306-1.367-8.287-.694-1.308-.749-1.56-.443-2.05.186-.298.397-.54.477-.548m-33.062 6.603h6.879v14.552h-6.88V158.22m-138.245.132.07 7.342.07 7.343H51.33v-14.553l2.315-.026c1.274-.015 2.792-.045 3.374-.067z" style="display:inline;fill:#3f4443;fill-opacity:1" transform="translate(21.698 -121.444)"/></g></svg>