<svg xmlns="http://www.w3.org/2000/svg" fill="none" viewBox="0 0 240 300"><rect width="240" height="300" fill="#dfe3e5" rx="12"/><path fill="#9ca3af" d="M82 72q2-24 38-28 36 4 38 28Z"/><ellipse cx="120" cy="73" fill="#868e92" rx="42" ry="9"/><ellipse cx="120" cy="94" fill="#9ca3af" rx="32" ry="36"/><path fill="#9ca3af" d="M150 88c8 8 14 26 8 46q-4 8-10-2c-2-10 2-26 2-44"/><ellipse cx="152" cy="130" fill="#868e92" rx="5" ry="3"/><rect width="24" height="16" x="108" y="128" fill="#9ca3af" rx="6"/><path fill="#9ca3af" d="M120 142c-40 0-82 28-96 78v80h192v-80c-14-50-56-78-96-78"/><path stroke="#868e92" stroke-linecap="round" stroke-linejoin="round" stroke-width="3" d="m108 142 12 22 12-22"/></svg>