<?xml version="1.0" encoding="UTF-8" standalone="no"?>
<svg
   viewBox="0 0 448 448"
   version="1.1"
   id="svg1"
   sodipodi:docname="ig.svg"
   width="448"
   height="448"
   inkscape:version="1.4.2 (ebf0e940, 2025-05-08)"
   xmlns:inkscape="http://www.inkscape.org/namespaces/inkscape"
   xmlns:sodipodi="http://sodipodi.sourceforge.net/DTD/sodipodi-0.dtd"
   xmlns="http://www.w3.org/2000/svg"
   xmlns:svg="http://www.w3.org/2000/svg">
  <defs
     id="defs1" />
  <sodipodi:namedview
     id="namedview1"
     pagecolor="#2049ff"
     bordercolor="#000000"
     borderopacity="0.25"
     inkscape:showpageshadow="2"
     inkscape:pageopacity="0.0"
     inkscape:pagecheckerboard="0"
     inkscape:deskcolor="#d1d1d1"
     inkscape:zoom="1.8571429"
     inkscape:cx="224.26923"
     inkscape:cy="223.99999"
     inkscape:window-width="2008"
     inkscape:window-height="1639"
     inkscape:window-x="1000"
     inkscape:window-y="25"
     inkscape:window-maximized="0"
     inkscape:current-layer="svg1" />
  <!-- Font Awesome Free 5.15.4 by @fontawesome - https://fontawesome.com License - https://fontawesome.com/license/free (Icons: CC BY 4.0, Fonts: SIL OFL 1.1, Code: MIT License) -->
  <path
     d="M 224,170.66 A 53.34,53.34 0 1 0 277.36,224 53.38,53.38 0 0 0 224,170.66 Z m 124.71,-41 A 54,54 0 0 0 318.3,99.25 c -21,-8.29 -71,-6.43 -94.3,-6.43 -23.3,0 -73.25,-1.93 -94.31,6.43 a 54,54 0 0 0 -30.41,30.41 c -8.28,21 -6.43,71.05 -6.43,94.33 0,23.28 -1.85,73.27 6.47,94.34 a 54,54 0 0 0 30.41,30.41 c 21,8.29 71,6.43 94.31,6.43 23.31,0 73.24,1.93 94.3,-6.43 a 54,54 0 0 0 30.41,-30.41 c 8.35,-21 6.43,-71.05 6.43,-94.33 0,-23.28 1.92,-73.26 -6.43,-94.33 z M 224,306 a 82,82 0 1 1 82,-82 81.9,81.9 0 0 1 -82,82 z m 85.38,-148.3 a 19.14,19.14 0 1 1 19.13,-19.14 19.1,19.1 0 0 1 -19.09,19.18 z M 400,0 H 48 A 48,48 0 0 0 0,48 v 352 a 48,48 0 0 0 48,48 h 352 a 48,48 0 0 0 48,-48 V 48 A 48,48 0 0 0 400,0 Z m -17.12,290 c -1.29,25.63 -7.14,48.34 -25.85,67 -18.71,18.66 -41.4,24.63 -67,25.85 -26.41,1.49 -105.59,1.49 -132,0 C 132.4,381.56 109.77,375.7 91.03,357 72.29,338.3 66.4,315.58 65.18,290 c -1.49,-26.42 -1.49,-105.61 0,-132 1.29,-25.63 7.07,-48.34 25.85,-67 18.78,-18.66 41.47,-24.56 67,-25.78 26.41,-1.49 105.59,-1.49 132,0 25.63,1.29 48.33,7.15 67,25.85 18.67,18.7 24.63,41.42 25.85,67.05 1.49,26.32 1.49,105.44 0,131.88 z"
     id="path1"
     style="fill:#f4d0d0;fill-opacity:1" />
</svg>
