<?xml version="1.0" encoding="UTF-8" standalone="no"?>
<!-- Created with Inkscape (http://www.inkscape.org/) -->

<svg
   version="1.1"
   id="svg1"
   width="763.53534"
   height="961.37476"
   viewBox="0 0 763.53533 961.37476"
   sodipodi:docname="cracker-dude-ohio.svg"
   xml:space="preserve"
   inkscape:version="1.4.2 (ebf0e940, 2025-05-08)"
   inkscape:export-filename="cracker-dude-ohio.png"
   inkscape:export-xdpi="96"
   inkscape:export-ydpi="96"
   xmlns:inkscape="http://www.inkscape.org/namespaces/inkscape"
   xmlns:sodipodi="http://sodipodi.sourceforge.net/DTD/sodipodi-0.dtd"
   xmlns="http://www.w3.org/2000/svg"
   xmlns:svg="http://www.w3.org/2000/svg"><defs
     id="defs1" /><sodipodi:namedview
     id="namedview1"
     pagecolor="#ffffff"
     bordercolor="#000000"
     borderopacity="0.25"
     inkscape:showpageshadow="2"
     inkscape:pageopacity="0.0"
     inkscape:pagecheckerboard="0"
     inkscape:deskcolor="#979797"
     inkscape:zoom="0.62094402"
     inkscape:cx="-25.767218"
     inkscape:cy="600.69827"
     inkscape:window-width="2008"
     inkscape:window-height="1639"
     inkscape:window-x="1004"
     inkscape:window-y="25"
     inkscape:window-maximized="0"
     inkscape:current-layer="g1"
     showborder="false" /><g
     inkscape:groupmode="layer"
     inkscape:label="Image"
     id="g1"
     transform="translate(964.42418,-774.95103)"><path
       style="fill:#000000;stroke-width:4.4967"
       d="m -563.03714,1729.9042 c -10.88811,-18.5285 -19.76139,-27.6251 -28.15294,-28.8599 l -3.93736,-0.5989 -7.14867,-9.1147 c -6.87319,-8.7626 -7.86699,-10.9602 -12.47679,-27.5844 -2.00176,-7.219 -2.6554,-7.3469 -14.71364,-2.8761 -9.58058,3.5518 -20.63598,11.4122 -30.42798,21.6339 l -4.20291,4.3875 -7.95634,-0.2964 c -4.37554,-0.1663 -10.85921,0.55 -14.40728,1.5857 l -6.45106,1.8829 -3.60602,-4.5054 c -5.82049,-7.2718 -8.54348,-9.1097 -17.42901,-11.7636 -18.62732,-5.5628 -24.93312,-5.121 -30.68699,2.1493 -4.9772,6.2892 -7.5561,7.2339 -16.36679,5.9959 l -6.23382,-0.8766 -5.15638,-5.1459 c -2.836,-2.8307 -7.84997,-8.1954 -11.14213,-11.9232 -3.29215,-3.7274 -7.7417,-8.0064 -9.88777,-9.5101 l -3.90215,-2.7341 -23.05854,-2.5222 -23.05855,-2.5225 -6.19955,-8.6339 c -7.73469,-10.7708 -15.35016,-25.8467 -18.1199,-35.8707 l -2.11485,-7.6541 -7.8173,-5.2303 c -13.0605,-8.7369 -25.3905,-15.2746 -28.6194,-15.174 -1.674,0.051 -7.7545,0.6953 -13.512,1.429 l -10.4681,1.3339 -6.7123,-5.4898 -6.7122,-5.4892 -5.2398,1.2578 c -2.8818,0.6912 -7.4635,2.3014 -10.1815,3.5779 -2.718,1.2762 -5.0619,2.128 -5.2086,1.8925 -0.4813,-0.7716 1.3225,-75.5181 3.5055,-145.2725 0.4403,-14.0687 1.3411,-52.4074 2.5319,-107.7737 0.2409,-11.1997 0.5205,-22.7845 0.6211,-25.7438 0.4825,-14.1633 2.3569,-115.6031 3.72,-201.3196 1.8441,-115.95299 2.2955,-131.76819 3.7724,-132.75439 1.26,-0.8397 33.1528,-2.3441 57.8946,-2.7312 8.6092,-0.1331 21.634,-0.485 28.94394,-0.7779 7.31006,-0.2952 20.86702,-0.5839 30.12685,-0.6457 24.70766,-0.1642 27.17699,-0.2187 61.46416,-1.3566 17.26126,-0.5731 34.14821,-1.4759 37.52675,-2.0065 7.70684,-1.2107 11.315,-0.7276 16.19916,2.1676 2.12323,1.2598 8.97952,3.9166 15.23618,5.9033 6.25678,1.9874 15.13695,5.7039 19.73367,8.2599 4.59684,2.5557 13.63513,7.0151 20.08513,9.9107 l 11.72736,5.2643 4.22814,4.7892 c 4.49428,5.0908 12.79933,9.5443 19.57508,10.4968 l 4.11285,0.5778 7.74694,-5.0336 7.74705,-5.0341 1.5675,1.7219 c 0.86221,0.9469 2.87146,3.9463 4.46513,6.6649 l 2.89764,4.94279 -10.45219,1.8503 -10.4522,1.8499 -7.3937,5.2108 c -9.7155,6.8463 -9.53466,8.7063 0.99487,10.2335 l 3.6166,0.5084 8.40249,-4.8158 8.40249,-4.8152 15.44481,2.1707 15.44486,2.1705 8.68779,5.6395 c 5.60373,3.6376 10.9758,6.1433 15.13303,7.0578 l 6.44535,1.4181 5.88653,-3.6769 c 3.23755,-2.0217 12.11713,-5.6935 19.73225,-8.1583 7.61523,-2.4652 17.85434,-6.0755 22.75349,-8.0224 4.89916,-1.9468 13.97041,-4.9421 20.1583,-6.6546 l 11.25075,-3.1145 7.17241,2.3064 7.17241,2.3055 14.45725,0.018 c 19.10596,0.024 36.66013,-9.14549 52.25526,-27.29639 19.15545,-22.2947 49.90133,-41.582 101.04001,-63.3822 8.08352,-3.4465 18.16023,-7.8242 22.39265,-9.7287 4.23241,-1.9045 16.48589,-6.8568 27.22993,-11.0048 l 19.53463,-7.5419 1.74369,1.4673 c 1.22461,1.0306 1.87112,6.0961 2.17213,17.0227 0.23557,8.5559 0.94966,33.4708 1.58677,55.3666 0.63723,21.8953 1.47184,50.66749 1.8547,63.93739 0.3831,13.2695 1.0101,33.9023 1.39367,45.8504 0.38358,11.9482 0.72028,23.6197 0.74836,25.9364 0.0274,2.3167 0.39345,13.1811 0.81188,24.1431 0.41856,10.9616 0.80344,22.6399 0.85555,25.9509 0.0524,3.3114 0.42272,16.4624 0.82295,29.2252 l 0.72813,23.2044 -2.61602,2.1837 c -3.44576,2.8766 -8.75407,4.6796 -12.30702,4.1804 -3.78804,-0.5325 -5.44287,1.1638 -8.02891,8.2286 l -2.15475,5.8869 3.81362,7.2933 c 4.59101,8.7795 5.68653,14.2984 7.09555,35.7462 l 1.07863,16.4181 -4.75055,9.8289 c -2.61281,5.4061 -7.0225,17.62 -9.79902,27.1415 l -5.04847,17.3118 -1.50515,16.7341 c -1.728,19.2119 -2.31752,20.964 -7.50554,22.3055 l -3.80126,0.9833 0.2909,4.3599 c 0.50457,7.5585 -6.11556,47.1212 -9.30206,55.5893 l -2.90359,7.7164 -12.91057,10.4856 c -13.15067,10.6807 -19.74557,17.3152 -28.29298,28.4643 -5.0606,6.6006 -22.20407,20.3705 -31.48352,25.2879 l -5.51319,2.9215 -3.27966,-1.2189 c -1.80366,-0.6711 -6.45963,-3.2362 -10.34655,-5.702 -12.40207,-7.8679 -22.89638,-0.6561 -27.87204,19.1495 l -1.63376,6.5039 -6.44345,1.9729 c -15.85378,4.8535 -19.46693,8.6689 -23.82249,25.1536 l -2.65445,10.0467 -5.07,6.8379 c -5.50938,7.4307 -6.28605,9.5574 -4.1376,11.3318 0.77072,0.6367 2.83101,3.5982 4.57852,6.5808 l 3.17711,5.4231 -3.98091,4.6761 c -2.18961,2.5721 -5.86987,7.8233 -8.17858,11.6697 -2.30859,3.8459 -4.92283,7.5336 -5.80895,8.194 l -1.61152,1.2014 -0.77548,-1.9109 c -0.42629,-1.0513 -2.80864,-5.9815 -5.29367,-10.9563 l -4.5182,-9.0449 -4.88428,-3.3903 c -2.68634,-1.8638 -6.26796,-3.5841 -7.95907,-3.8213 l -3.07479,-0.4318 -6.07273,7.8576 c -3.33998,4.3212 -7.62463,10.3418 -9.52157,13.379 l -3.44884,5.5223 -1.24841,8.235 c -0.85091,5.6123 -2.00711,9.0843 -3.63052,10.9035 -1.31004,1.468 -3.81922,6.0911 -5.57589,10.274 l -3.19412,7.6052 1.55274,2.3765 c 2.25815,3.4556 3.01043,9.5281 2.74571,22.1624 l -0.23557,11.1751 -2.49395,2.0823 c -1.37167,1.1449 -4.94663,3.0915 -7.94432,4.325 -6.81644,2.8057 -8.13016,4.6046 -9.26637,12.689 l -0.90897,6.4676 -5.12568,5.0785 c -8.01523,7.941 -13.95577,10.5079 -30.86427,13.3352 -13.31449,2.2272 -13.83643,2.0958 -17.68135,-4.4471 z m 23.88424,-24.5574 3.62576,-1.2725 1.95524,-7.8552 c 2.38985,-9.6002 5.83632,-14.7705 12.81825,-19.2292 6.32876,-4.0414 6.1334,-3.3092 3.26408,-12.2447 l -2.29812,-7.1568 1.27303,-8.2314 1.27303,-8.2313 4.45883,-8.3839 c 2.45231,-4.6116 5.5628,-12.7979 6.91221,-18.1932 l 2.45338,-9.8086 6.21645,-9.3446 c 17.18142,-25.8277 27.70821,-33.3776 43.5207,-31.2136 l 7.1899,0.9652 4.48667,-6.2774 c 2.9626,-4.1452 5.11593,-8.8483 6.33887,-13.8448 4.39518,-17.9569 13.93578,-30.1688 28.41909,-36.3761 2.98829,-1.2808 5.54281,-3.1076 5.67665,-4.06 0.83854,-5.9665 13.48939,-21.5301 24.17704,-29.7433 9.58022,-7.3628 20.70427,-7.5814 33.86017,-0.6665 l 6.99133,3.675 5.30414,-4.1223 c 2.91739,-2.2675 9.57011,-9.3017 14.78396,-15.6322 9.81936,-11.922 12.44954,-14.4548 27.22458,-26.2198 l 8.79332,-7.001 3.6686,-21.3057 c 2.01781,-11.7182 3.50595,-23.4699 3.30702,-26.1147 -0.55406,-7.366 5.42622,-22.0612 9.7512,-23.961 0.59202,-0.2639 1.49956,-5.667 2.01769,-12.0159 l 0.94193,-11.5435 5.98516,-20.1842 c 3.2918,-11.1014 7.66722,-23.8903 9.72311,-28.4201 l 3.73784,-8.2356 -1.00308,-11.8042 c -1.05126,-12.3713 -3.11096,-20.1647 -8.12337,-30.7379 l -3.00603,-6.3411 1.18904,-8.3314 c 0.7963,-5.579 2.54702,-11.1189 5.29772,-16.7655 l 4.10844,-8.4333 7.02607,-5.3088 7.02607,-5.3084 -0.0583,-6.9284 c -0.0583,-6.9265 -0.46079,-20.1315 -1.16715,-38.3209 -0.20642,-5.3154 -0.54788,-16.4466 -0.75882,-24.7362 -0.46424,-18.2499 -0.63902,-23.6499 -1.44614,-44.6563 -0.56716,-14.7627 -1.01605,-31.2337 -1.29862,-47.6401 -0.41415,-24.05299 -2.8341,-90.29389 -3.32213,-90.94189 -0.62736,-0.8322 -16.8991,4.6395 -17.06804,5.7398 -0.0523,0.3409 -5.53472,2.8344 -12.18197,5.5346 -6.64726,2.6997 -22.60978,9.8566 -35.47205,15.9033 l -23.38621,10.9943 -15.39429,11.7893 c -8.46698,6.4845 -18.64053,15.3885 -22.60799,19.787 -8.75823,9.70939 -33.01831,28.28729 -42.7074,32.70459 -10.6153,4.8397 -41.90347,6.1689 -54.84046,2.3299 l -4.79196,-1.4226 -7.45592,1.8785 c -7.43571,1.8728 -16.8897,5.3732 -29.24906,10.8282 -3.58746,1.5839 -8.93895,3.3682 -11.89239,3.9656 -2.9532,0.597 -8.34288,2.7557 -11.97698,4.7966 -3.63397,2.0407 -8.60213,4.4397 -11.04028,5.3313 l -4.43289,1.6218 -11.18639,-1.6178 c -11.59685,-1.6753 -15.19192,-3.0477 -27.4354,-10.5121 l -7.26509,-4.4291 -6.45214,-0.5798 -6.45207,-0.5799 -6.12615,3.4455 c -3.36949,1.8949 -9.00462,3.9723 -12.52259,4.6166 l -6.39646,1.1709 -8.55359,-2.0026 c -19.32511,-4.5248 -28.64657,-14.3273 -28.3107,-29.7721 l 0.13242,-6.0953 -3.27419,-3.3096 c -1.80069,-1.8204 -7.91601,-5.3808 -13.58945,-7.9115 -5.67332,-2.53129 -12.74199,-6.09199 -15.70791,-7.91399 -19.91214,-12.2305 -42.36499,-14.8121 -97.39605,-11.1984 -3.00126,0.1949 -14.66343,0.4686 -25.91585,0.6036 -11.25266,0.1363 -26.43554,0.4538 -33.74001,0.7081 -7.30447,0.2548 -25.20696,0.6897 -39.78366,0.9683 -14.5765,0.278 -28.0604,0.6035 -29.964,0.7227 l -3.4613,0.2185 -0.3247,7.9407 c -0.1784,4.3678 -0.4844,20.35339 -0.6791,35.52419 -0.195,15.1712 -0.6236,41.0618 -0.9526,57.5353 -0.328,16.4737 -0.7846,42.6315 -1.0114,58.1281 -0.7229,49.2482 -1.6449,96.3025 -2.8232,144.3769 -0.6305,25.6826 -1.2448,53.1691 -1.3643,61.0821 -0.1202,7.9123 -0.6255,28.9265 -1.1233,46.6981 -0.4981,17.7718 -1.1288,43.3635 -1.4015,56.8715 -0.2717,13.5081 -0.8845,35.3182 -1.3593,48.4675 -1.2507,34.6457 -1.2161,36.7094 0.6344,37.9447 0.9061,0.605 4.4378,2.877 7.8482,5.0489 l 6.2007,3.9482 5.4114,-1.0853 c 2.9762,-0.597 8.6425,-0.9068 12.5916,-0.6877 l 7.1803,0.3998 12.7932,7.1951 c 29.47497,16.5786 35.24371,21.993 40.51609,38.0273 1.67065,5.0802 5.32247,13.5294 8.1154,18.7744 l 5.07798,9.5371 17.76856,1.8006 17.76856,1.801 6.43346,2.5027 c 7.63867,2.9711 14.15969,7.9336 22.50091,17.1225 l 6.12495,6.7468 3.20686,-2.583 c 1.7638,-1.4206 5.74958,-3.3636 8.85721,-4.3176 l 5.65024,-1.7349 11.84635,1.197 c 15.40952,1.5562 32.77274,6.6971 40.01356,11.847 3.00019,2.1342 6.97467,4.0934 8.83211,4.3548 l 3.37746,0.4727 14.49568,-10.8924 14.49568,-10.892 13.25191,-4.4316 13.25203,-4.4311 7.56693,1.0636 c 14.25143,2.0027 20.68613,8.8998 25.70414,27.5516 3.57461,13.2856 6.25107,17.2977 12.84585,19.2544 6.23322,1.8499 16.05937,10.5155 23.79655,20.9869 6.27558,8.4931 7.0413,8.9238 12.46859,7.0186 z"
       id="path1" /><path
       id="path196"
       style="display:inline;fill:#000000"
       d="m -866.07754,774.95568 c -0.29575,-0.29575 -3.75187,13.54312 -7.68164,30.75195 -8.70102,38.10252 -6.96904,34.97349 -18.25782,32.94531 -18.62178,-3.34564 -46.54531,-7.03401 -50.39843,-6.6582 -3.77019,0.36772 -2.97426,1.26178 14.66796,16.50976 23.64625,20.43719 23.30778,20.03463 19.19727,22.91211 -10.63769,7.44669 -49.36882,41.63691 -47.1582,41.62891 0.70446,-0.003 13.28059,-2.39326 27.94726,-5.3125 36.59399,-7.28363 32.66492,-8.68435 32.66992,11.65039 0.006,23.73418 1.58931,63.00524 2.53907,62.96484 0.43457,-0.0185 7.01436,-10.5172 14.62109,-23.33203 16.47162,-27.74925 12.36814,-27.44387 26.375,-1.96679 14.97252,27.23353 13.81364,28.98619 16.00586,-24.18164 l 0.85937,-20.84961 10.00977,6.07812 c 48.62358,29.52008 86.52325,72.82691 103.72266,118.5215 4.83379,12.8426 6.25526,11.9233 -19.80274,12.8203 -52.86676,1.8198 -91.77868,11.1996 -101.99414,24.5859 l -3.67383,4.8125 -0.8164,70.5215 -0.81836,70.5215 -4.42969,4.5703 c -2.79618,2.8849 -6.18469,4.8503 -9.18359,5.3281 -98.53962,15.6996 -89.25239,104.2587 18.38086,175.2715 3.03137,2 3.03098,1.9993 3.68359,84.666 1.10857,140.4299 -1.67965,134.4308 67.00977,144.209 4.35806,0.6204 4.46902,0.7868 3.68164,5.5489 -0.44648,2.7002 -0.81818,10.3251 -0.82618,16.9433 l -0.0137,12.0332 -13.22265,2.2559 c -31.87663,5.4395 -66.74142,20.1629 -73.45118,31.0195 -16.78509,27.1588 35.82928,42.3359 83.97266,24.2227 13.113,-4.9336 14.61047,-4.8212 14.70117,1.1015 0.0956,6.2421 1.05106,6.217 27.94922,-0.7558 14.20685,-3.6829 26.23108,-6.9435 26.7207,-7.2461 0.48962,-0.3026 -2.5865,-19.6014 -6.83593,-42.8848 -4.24944,-23.2835 -7.49179,-42.5668 -7.20703,-42.8516 0.73863,-0.7386 42.04886,-3.3632 42.69921,-2.7128 0.29679,0.2967 -2.8663,21.0338 -7.02734,46.0839 -4.16103,25.05 -7.12935,45.982 -6.59766,46.5137 0.87125,0.8712 54.04247,11.1279 57.9043,11.1699 0.88343,0.01 2.00633,-2.1197 2.49609,-4.7304 0.54282,-2.8934 1.51592,-4.5067 2.49024,-4.1328 7.68349,2.9484 25.75056,7.9899 33.9707,9.4785 26.09448,4.7253 41.4375,-3.1529 41.4375,-21.2754 0,-18.275 -19.78919,-31.4131 -70.52148,-46.8203 -1.44488,-0.4388 -1.66533,-2.363 -1,-8.7286 0.46942,-4.4911 0.85351,-13.1655 0.85351,-19.2773 0,-11.051 0.0215,-11.1163 3.66797,-11.8652 17.55563,-3.606 30.45841,-8.6269 43.33203,-16.8594 l 6.33399,-4.0508 v -89.707 -89.707 l 3.41797,-2.2403 c 25.96577,-17.0134 60.18901,-64.1272 68.81445,-94.7344 16.29646,-57.8277 -24.74432,-120.5754 -65.62891,-100.3418 l -6.9707,3.4493 0.84766,-42.2207 c 1.92161,-95.7299 1.75934,-110.3602 -1.26758,-114.4981 -9.80417,-13.4029 -55.54853,-24.4725 -110.71094,-26.791 l -22.13476,-0.9297 -4.95899,-14 c -17.40322,-49.12123 -59.08131,-98.36093 -107.83984,-127.40624 -10.8244,-6.44806 -10.94969,-6.37678 9.16797,-5.25781 l 17.40039,0.96875 -6.83985,-10.77539 c -8.29496,-13.06533 -9.48152,-11.17712 13.98438,-22.28711 10.66166,-5.0478 19.38476,-9.58486 19.38476,-10.08399 0,-0.77178 -30.0972,-8.47529 -43.66601,-11.17578 -5.392,-1.07312 -6.71572,3.46109 10.33398,-35.37695 8.06667,-18.37531 14.66602,-33.72513 14.66602,-34.11133 0,-3.62274 -50.73553,28.00693 -62.71485,39.09766 -9.74549,9.0226 -8.06968,10.86252 -16.61914,-18.25977 -3.91097,-13.32209 -7.35268,-24.46401 -7.64843,-24.75976 z m 302.54101,502.15232 c 0.39794,-0.027 0.97183,0.6997 1.79492,1.7461 1.4858,1.8889 3.88449,3.81 5.33203,4.2695 1.44754,0.4594 2.63282,1.9142 2.63282,3.2325 0,3.257 4.6707,8.9615 9.0625,11.0664 5.70701,2.7353 4.3602,4.5886 -7.4961,10.3222 -6.10455,2.9521 -11.3539,5.3692 -11.66601,5.3692 -0.31212,0 -0.56836,-8.4822 -0.56836,-18.8477 0,-13.1042 9e-5,-17.0961 0.9082,-17.1582 z m -278.13086,10.7617 c 0.96294,-0.043 0.96289,1.9787 0.96289,8.4473 v 9.4082 h -10.69336 -10.69336 l 2.69336,-5.2812 c 1.48157,-2.9041 2.69336,-6.2029 2.69336,-7.3321 0,-1.4863 1.39106,-2.0527 5.03711,-2.0527 2.77016,0 6.37016,-0.9347 8,-2.0762 0.92605,-0.6486 1.5623,-1.0938 2,-1.1133 z" /><path
       style="display:inline;fill:#f8eb00"
       d="m -596.73643,1713.4144 c -6.6,-1.7268 -17.0553,-5.021 -23.2341,-7.3206 l -11.2342,-4.181 -1.6401,0.6294 -1.6401,0.6293 -0.9181,4.1802 -0.9182,4.1802 -1.7135,0.6575 -1.7135,0.6576 -15.1607,-2.8452 c -8.3385,-1.5648 -15.6327,-3.3032 -16.2094,-3.8629 l -1.0487,-1.0178 7.382,-44.1452 c 4.0601,-24.2799 7.382,-45.678 7.382,-47.5514 v -3.4061 h -5.4823 c -3.0152,0 -19.3652,0.9369 -36.3333,2.0819 l -30.8511,2.082 -0.9924,0.9771 -0.9924,0.9771 7.8897,42.6076 7.8896,42.6076 -1.0367,1.0727 c -1.5011,1.5535 -24.4804,7.7162 -26.2572,7.0418 l -1.4994,-0.5691 -0.8728,-5.7727 c -0.4801,-3.175 -1.3524,-6.5414 -1.9384,-7.481 l -1.0656,-1.7084 -11.4077,6.0686 c -6.2743,3.3377 -15.8273,7.6254 -21.2289,9.5282 l -9.8211,3.4597 -15.1694,0.6877 -15.1694,0.6877 -7.4973,-1.6633 c -4.1235,-0.9148 -9.1473,-2.5086 -11.1639,-3.5418 l -3.6667,-1.8786 v -2.5416 -2.5416 l 3.6667,-2.5783 c 2.0166,-1.4181 5.6781,-3.6061 8.1365,-4.8623 l 4.4698,-2.284 8.8635,6.0863 c 4.8749,3.3475 10.4962,7.3989 12.4916,9.0031 l 3.6282,2.9167 3.3718,-1.5363 3.3719,-1.5363 v -3.9182 -3.9181 l -7.5736,-6.6432 -7.5735,-6.6432 11.2402,-3.5823 11.2402,-3.5823 15.8138,-2.185 15.8137,-2.185 1.0172,-2.6999 1.0173,-2.7 0.5023,-26.6667 0.5024,-26.6666 -15.3333,-1.6549 c -8.4334,-0.9102 -20.1334,-2.6041 -26,-3.7641 l -10.6667,-2.1092 -5.2217,-2.9026 -5.2217,-2.9026 -2.3624,-4.6666 -2.3624,-4.6667 -1.3604,-13.3333 -1.3604,-13.3334 -0.6091,-78.5059 -0.6091,-78.506 2.0262,2.0262 c 1.1144,1.1144 3.339,5.8388 4.9437,10.4986 l 2.9174,8.4725 2.3407,0.4508 2.3406,0.4507 2.0786,-1.725 2.0786,-1.7251 -0.7844,-5.7226 -0.7844,-5.7227 -2.7493,-5.3891 c -1.5121,-2.9641 -4.898,-7.7674 -7.5241,-10.6742 l -4.7747,-5.2851 -12.8342,-8.8672 c -19.4443,-13.4342 -36.7872,-27.6629 -50.8784,-41.7423 l -12.711,-12.7002 -4.8339,-7.3758 -4.8339,-7.3758 -2.2724,-7.8168 -2.2725,-7.8169 0.5331,-12.1407 0.5331,-12.1407 4.1525,-8.8683 4.1526,-8.8684 5.3292,-5.3292 c 2.9311,-2.9311 7.992,-6.8897 11.2465,-8.797 l 5.9174,-3.4678 10.4317,-2.668 10.4317,-2.668 h 5.8296 5.8295 l 4.507,1.8832 c 2.4788,1.0357 5.7595,3.1357 7.2905,4.6666 l 2.7835,2.7836 v 6.5034 6.5034 l -1.9816,1.6446 -1.9817,1.6446 -4.3516,-0.7196 c -2.3935,-0.3957 -6.0017,-1.1323 -8.0184,-1.6367 l -3.6667,-0.9173 v 2.3314 c 0,1.2823 1.2411,4.3395 2.758,6.7939 l 2.7579,4.4624 -0.4246,3.695 -0.4246,3.6949 -3.6407,0.4194 -3.6407,0.4194 -5.1794,-5.6093 -5.1794,-5.6093 -1.5151,0.9364 -1.5152,0.9364 0.8474,9.1171 0.8473,9.117 -0.8474,3.3765 c -0.4661,1.8571 -1.7894,4.3185 -2.9407,5.4698 l -2.0933,2.0932 h -5.826 -5.8261 l -0.8958,-1.4495 -0.8959,-1.4495 1.5144,-1.5144 1.5144,-1.5144 4.5171,0.3891 4.517,0.3892 0.9566,-3.0138 0.9565,-3.0137 -3.5785,-3.0782 -3.5785,-3.0781 h -4.059 -4.059 l -4.5333,4.5333 -4.5334,4.5334 v 5.3643 5.3644 l 3.4488,4.0986 3.4487,4.0986 6.8846,1.8871 6.8846,1.8872 17.625,0.7863 17.625,0.7864 7.7084,2.8559 7.7083,2.8558 6,6.3176 c 3.3,3.4747 7.2344,7.9711 8.7432,9.992 l 2.7433,3.6744 2.9234,-1.5645 2.9234,-1.5646 v -3.1408 -3.1409 l -4.4112,-6.401 -4.4112,-6.4011 -6.0829,-4.0779 c -3.3455,-2.2428 -7.9605,-5.0999 -10.2554,-6.3492 l -4.1726,-2.2713 v -18.0151 -18.0151 l 2.6528,-1.4197 2.6529,-1.4198 2.2291,-4.2938 2.2292,-4.2938 v -7.3334 -7.3333 l -2.214,-4.2644 -2.2139,-4.2644 -5.0014,-3.6817 c -2.7508,-2.0249 -5.2514,-3.8559 -5.557,-4.0689 -0.3055,-0.213 -0.2054,-0.7374 0.2226,-1.1653 l 0.778,-0.7781 5.9305,2.6233 5.9305,2.6234 3.763,4.7159 3.7629,4.7159 2.7514,7.7722 2.7514,7.7721 3.1819,0.45 3.1818,0.45 1.1304,-1.7833 c 0.6217,-0.9809 1.1391,-3.2834 1.1497,-5.1167 l 0.019,-3.3333 -3.7907,-8 -3.7907,-8 -5.4619,-4.9246 c -3.0041,-2.7085 -7.4478,-5.9348 -9.8749,-7.1696 -2.4272,-1.2347 -4.6666,-2.4722 -4.9765,-2.75 -0.7222,-0.6473 -0.079,-115.4494 0.6534,-116.6347 l 0.5494,-0.8889 8.1782,3.3034 8.1783,3.3033 15.0118,3.1796 c 8.2565,1.7488 22.1557,4.109 30.8871,5.2449 l 15.8754,2.0653 27.2816,1.1151 27.2816,1.1151 25.5629,-1.0715 25.5628,-1.0715 17.1039,-2.1953 17.1038,-2.1953 14,-3.7559 c 7.7,-2.0658 15.2695,-4.1604 16.8211,-4.6548 l 2.8211,-0.8987 -0.1544,245.1034 -0.1545,245.1035 -6.6667,3.6336 c -3.6666,1.9985 -10.2016,4.8402 -14.5222,6.3149 l -7.8555,2.6814 -11.1176,1.5553 -11.1175,1.5552 -0.6119,2.1351 c -0.3365,1.1742 -1.0268,15.154 -1.534,31.066 l -0.9222,28.931 3.8405,0.874 c 2.1122,0.4808 10.3917,2.7618 18.3988,5.0691 l 14.5583,4.1949 0.4382,1.3333 0.4382,1.3334 -7.4461,3.891 -7.4461,3.8909 -2.0729,3.1637 -2.0729,3.1636 1.4939,3.2787 1.4939,3.2787 h 3.455 3.455 l 5.5993,-3.8523 c 6.5226,-4.4877 13.9284,-6.7964 21.8348,-6.8069 l 5.6203,-0.01 4.6194,4.0559 4.6193,4.0559 0.9238,4.2057 0.9237,4.2057 -3.5711,3.0718 -3.5711,3.0717 -8.2589,-0.066 -8.259,-0.066 z m -103.6373,-337.396 c 2.4517,-4.4 5.7906,-9.3539 7.4198,-11.0087 l 2.9621,-3.0086 3.9664,-1.1376 3.9664,-1.1375 6.438,1.6347 6.438,1.6347 3.5567,2.6341 c 1.9561,1.4487 4.9471,4.6777 6.6466,7.1755 1.6994,2.4978 3.9615,5.0292 5.0269,5.6254 l 1.9369,1.0839 2.721,-0.8636 2.7211,-0.8636 1.3314,-2.9222 1.3314,-2.9221 -1.3233,-3.4808 c -0.7279,-1.9144 -3.2779,-5.7067 -5.6667,-8.4274 l -4.3433,-4.9467 -7.0794,-3.9954 -7.0793,-3.9953 v -3.8385 -3.8385 l 3.6666,-1.9076 c 7.2122,-3.752 12.7363,-12.0598 14.3229,-21.5403 0.4867,-2.908 1.1191,-6.0367 1.4053,-6.9526 l 0.5204,-1.6653 4.6264,2.2062 4.6263,2.2061 3.4161,-2.2382 3.416,-2.2383 v -3.0959 -3.096 l -2.3334,-1.9716 c -1.2833,-1.0845 -7.9476,-5.4131 -14.8096,-9.6192 l -12.4764,-7.6476 -0.8377,0.8377 c -0.4607,0.4607 -0.8643,7.8464 -0.8969,16.4126 l -0.059,15.5748 -2.3573,4.3907 -2.3572,4.3906 -3.3332,1.2673 -3.3333,1.2673 -4.4271,-1.8498 -4.4271,-1.8498 -3.4654,-4.5433 c -4.9941,-6.5476 -9.5481,-17.5353 -12.1897,-29.411 -1.2647,-5.6859 -2.8109,-10.654 -3.436,-11.0403 l -1.1364,-0.7023 -8.3929,7.1286 -8.3929,7.1286 -3.8423,6.2148 -3.8423,6.2148 2.2039,3.3636 2.2039,3.3636 h 2.8963 2.8963 l 3.6318,-3.4795 3.6317,-3.4794 4.6282,10.0171 4.6282,10.0172 5.5132,5.9811 5.5132,5.981 4.0366,1.6721 4.0367,1.672 -0.4035,3.3503 -0.4035,3.3502 -5.2124,1.796 c -10.3363,3.5615 -19.6731,13.2899 -24.2454,25.2623 l -2.2678,5.9381 1.5391,3.3778 1.539,3.3779 4.2762,-0.4171 4.2763,-0.4171 z m -115.696,-90.7555 v -8.6616 l 2.0717,-0.7949 2.0717,-0.795 5.3763,2.4243 5.3762,2.4244 2.2187,-1.3995 2.2187,-1.3995 v -3.1349 -3.1349 l -4.3014,-2.8988 -4.3015,-2.8987 -4.7017,-0.8821 -4.7018,-0.882 -4.4705,2.1213 -4.4704,2.1214 -1.8597,3.489 -1.8596,3.4891 0.1299,8.6736 0.1299,8.6736 2.9939,2.4243 2.9939,2.4243 2.5428,-1.3609 2.5429,-1.3609 z m 99.497,-11.2527 3.4594,-5.2276 5.6094,-2.7154 5.6095,-2.7155 h 9.4385 9.4386 l 8.8393,2.7302 c 4.8615,1.5015 13.6261,5.045 19.4768,7.8743 l 10.6376,5.1443 2.7765,-0.7261 2.7765,-0.7261 1.3576,-2.9796 1.3577,-2.9797 -1.5225,-2.8447 -1.5224,-2.8447 -8.9481,-4.461 c -4.9214,-2.4536 -11.7981,-5.5308 -15.2814,-6.8384 l -6.3333,-2.3775 0.018,-3.4855 c 0.01,-1.917 1.7425,-8.4405 3.8505,-14.4966 l 3.8328,-11.011 5.5794,-8.5635 5.5793,-8.5636 6.2367,-5.8102 c 3.4302,-3.1956 9.9538,-8.0604 14.4967,-10.8107 l 8.26,-5.0005 0.8139,-2.5643 0.8139,-2.5644 -1.4058,-2.6267 -1.4058,-2.6267 -2.6604,-0.8444 -2.6603,-0.8444 -6.6616,3.6257 c -9.6912,5.2746 -21.0524,14.8255 -28.2223,23.7255 l -6.2664,7.7784 -4.6372,9.5226 c -4.1807,8.585 -7.1322,17.2738 -9.492,27.9425 l -0.8302,3.7533 -2.6552,-0.4199 -2.6551,-0.4199 -4.4292,-12.9159 -4.4291,-12.9159 -5.4012,-9.0841 c -2.9707,-4.9963 -7.8829,-11.9004 -10.916,-15.3426 l -5.5148,-6.2585 -7.3551,-3.5985 -7.3551,-3.5985 -5.1405,1.5401 -5.1405,1.5401 -4.1044,4.6747 c -4.3916,5.0017 -5.9661,9.204 -5.2534,14.0206 l 0.4439,2.9995 2.1269,1.3325 2.127,1.3325 3.3709,-0.8461 3.3709,-0.846 1.6456,-3.9728 c 0.905,-2.185 2.4379,-4.6303 3.4063,-5.434 l 1.7608,-1.4613 3.8657,1.999 3.8658,1.9991 4.6753,5.7514 c 8.3255,10.2416 18.4514,31.1631 18.4514,38.1229 v 2.3107 l -6.4082,2.9398 -6.4082,2.9398 -4.923,4.7812 c -2.7077,2.6297 -5.8728,6.6179 -7.0336,8.8627 l -2.1107,4.0814 0.8151,3.2475 0.8151,3.2474 2.9601,1.1181 2.9601,1.1181 2.3521,-1.2328 c 1.2937,-0.678 3.9089,-3.5851 5.8115,-6.4603 z m 152.0118,127.0725 -0.8421,-0.8421 v -36.2378 -36.2378 l 2.6303,-2.3804 c 1.4467,-1.3093 10.853,-7.2522 20.9029,-13.2067 10.0499,-5.9544 18.4836,-11.4784 18.7416,-12.2754 l 0.4691,-1.4493 -5.372,-2.1101 -5.3719,-2.1102 0.01,-1.7739 c 0,-0.9757 1.485,-4.174 3.2917,-7.1073 l 3.2849,-5.3333 0.042,-2.9746 0.042,-2.9746 -3.5553,-0.8924 -3.5554,-0.8923 -5.0016,5.8655 -5.0016,5.8656 -0.9365,-0.9365 -0.9365,-0.9365 0.803,-3.0621 0.803,-3.0621 6.6905,-7.7747 6.6904,-7.7746 v -2.292 c 0,-2.8371 -2.5287,-5.4921 -5.2308,-5.4921 h -2.0308 l -8.2349,8.1617 -8.2349,8.1617 -1.4676,-0.907 -1.4677,-0.9071 v -2.7999 -2.7998 l 8.7758,-8.3956 8.7759,-8.3956 -0.4539,-2.3925 -0.4539,-2.3925 -3.3223,-0.3898 -3.3223,-0.3898 -5.9439,6.0565 -5.9439,6.0564 h -1.7224 -1.7224 v -2.0531 c 0,-1.1292 1.2059,-4.4169 2.6797,-7.3059 l 2.6798,-5.2527 4.205,-2.1745 4.205,-2.1745 7.0559,0.5851 7.056,0.5852 6.3926,3.9217 6.3926,3.9218 5.6291,8.3712 5.629,8.3713 3.5364,10.9355 3.5364,10.9356 0.079,14.6666 0.079,14.6667 -2.2878,9.2715 -2.2878,9.2714 -5.7768,12.0619 c -9.2208,19.2527 -26.9311,42.4438 -42.7025,55.9177 l -7.0822,6.0506 z m -315.8745,-469.25529 c -0.3844,-0.6283 -0.1237,-11.5665 0.5794,-24.30711 0.7032,-12.74062 0.9616,-23.99062 0.5742,-25 l -0.7042,-1.83524 -3.7085,0.009 c -2.0397,0.005 -8.6966,1.20514 -14.793,2.66667 -6.0965,1.46152 -11.3819,2.65732 -11.7454,2.65732 -2.1176,0 2.5237,-3.81929 12.3248,-10.1421 l 11.1717,-7.20695 v -2.67342 -2.67342 l -10.1769,-10.65206 c -5.5973,-5.85862 -9.6146,-10.65205 -8.9274,-10.65205 0.6873,0 8.9252,2.14168 18.3066,4.75929 9.3813,2.6176 17.3709,4.44532 17.7546,4.06158 0.8513,-0.85124 2.2324,-8.37968 4.3701,-23.82087 l 1.6151,-11.66666 h 1.0749 1.075 l 3.401,14.16921 c 1.8705,7.79307 3.7648,14.53301 4.2094,14.97765 l 0.8085,0.80844 4.8326,-5.97765 c 9.0304,-11.17015 34.36,-33.31099 38.1086,-33.31099 1.865,0 0.5653,3.3542 -9.1544,23.62651 l -10.0356,20.93123 0.5965,1.55462 0.5966,1.55462 11.7724,0.90897 c 14.403,1.11209 20.4391,2.09302 20.4391,3.32162 0,0.51378 -5.4275,2.66866 -12.0611,4.78863 l -12.0611,3.85449 -1.3394,1.61381 -1.3393,1.61382 5.4004,4.99668 c 2.9703,2.74818 5.4005,5.41179 5.4005,5.91914 v 0.92245 l -11,0.84841 c -6.05,0.46662 -13.7,1.63924 -17,2.60582 l -6,1.75742 0.2664,20.92421 0.2663,20.92422 h -1.0813 c -0.5947,0 -3.7145,-6.29424 -6.933,-13.9872 l -5.8517,-13.98719 -1.6556,-0.0128 -1.6555,-0.0128 -7.2857,14.33333 c -4.0071,7.88333 -7.8372,15.14739 -8.5111,16.14235 l -1.2255,1.80902 z"
       id="path203" /><path
       style="display:inline;fill:#d62722"
       d="m -739.0009,1109.2833 c -44.3841,-3.5029 -77.694,-10.3591 -90.3085,-18.5884 l -4.9753,-3.2456 -0.8878,-3.5372 -0.8877,-3.5372 1.3214,-2.1269 c 0.7268,-1.1698 3.3129,-3.4831 5.7469,-5.1405 l 4.4255,-3.0135 8.7828,-2.7231 c 18.663,-5.7864 58.4276,-10.5362 88.4912,-10.57 l 11.7085,-0.013 0.579,1.6666 c 0.3185,0.9167 1.8574,5.1559 3.4199,9.4204 l 2.8409,7.7538 3.1654,1.4423 3.1655,1.4423 2.1522,-1.7862 2.1521,-1.7861 -0.446,-9.4099 -0.446,-9.4099 13.3334,0.4051 c 28.8322,0.876 64.0603,5.442 84.3666,10.9348 l 10.3,2.7862 6.625,3.6036 6.625,3.6036 1.9624,3.5131 1.9623,3.513 -2.3645,3.6087 -2.3646,3.6088 -8.2228,3.8226 -8.2228,3.8226 -12.1279,2.6797 c -6.6704,1.4738 -19.5704,3.6565 -28.6667,4.8505 l -16.5387,2.1708 -40,0.3827 c -22,0.2105 -43,0.1459 -46.6667,-0.1435 z"
       id="path531" /></g></svg>
