<?xml version="1.0" encoding="UTF-8" standalone="no"?>
<svg
   viewBox="0 0 448 448"
   version="1.1"
   id="svg1"
   sodipodi:docname="email.svg"
   width="448"
   height="448"
   inkscape:version="1.4.2 (ebf0e940, 2025-05-08)"
   xmlns:inkscape="http://www.inkscape.org/namespaces/inkscape"
   xmlns:sodipodi="http://sodipodi.sourceforge.net/DTD/sodipodi-0.dtd"
   xmlns="http://www.w3.org/2000/svg"
   xmlns:svg="http://www.w3.org/2000/svg">
  <defs
     id="defs1" />
  <sodipodi:namedview
     id="namedview1"
     pagecolor="#2ebbff"
     bordercolor="#000000"
     borderopacity="0.25"
     inkscape:showpageshadow="2"
     inkscape:pageopacity="0.0"
     inkscape:pagecheckerboard="0"
     inkscape:deskcolor="#d1d1d1"
     inkscape:zoom="1.8571429"
     inkscape:cx="224.26923"
     inkscape:cy="223.99999"
     inkscape:window-width="2008"
     inkscape:window-height="1639"
     inkscape:window-x="1000"
     inkscape:window-y="25"
     inkscape:window-maximized="0"
     inkscape:current-layer="svg1" />
  <!-- Font Awesome Free 5.15.4 by @fontawesome - https://fontawesome.com License - https://fontawesome.com/license/free (Icons: CC BY 4.0, Fonts: SIL OFL 1.1, Code: MIT License) -->
  <path
     d="M 400,0 H 48 C 21.49,0 0,21.49 0,48 v 352 c 0,26.51 21.49,48 48,48 h 352 c 26.51,0 48,-21.49 48,-48 V 48 C 448,21.49 426.51,0 400,0 Z M 178.117,230.104 C 87.429,164.287 88.353,164.121 64,145.167 V 120 C 64,106.745 74.745,96 88,96 h 272 c 13.255,0 24,10.745 24,24 v 25.167 c -24.371,18.969 -23.434,19.124 -114.117,84.938 -10.5,7.655 -31.392,26.12 -45.883,25.894 -14.503,0.218 -35.367,-18.227 -45.883,-25.895 z M 384,185.775 V 328 c 0,13.255 -10.745,24 -24,24 H 88 C 74.745,352 64,341.255 64,328 V 185.775 c 13.958,10.794 33.329,25.236 95.303,70.214 14.162,10.341 37.975,32.145 64.694,32.01 26.887,0.134 51.037,-22.041 64.72,-32.025 61.958,-44.965 81.325,-59.406 95.283,-70.199 z"
     id="path1"
     style="fill:#f4d0d0;fill-opacity:1" />
</svg>
