<?xml version="1.0" encoding="UTF-8" standalone="no"?>
<!-- Created with Inkscape (http://www.inkscape.org/) -->

<svg
   width="1047.0081"
   height="237.00011"
   viewBox="0 0 277.02088 62.706278"
   version="1.1"
   id="svg1"
   xml:space="preserve"
   sodipodi:docname="logo-text-outline.svg"
   inkscape:version="1.4.2 (ebf0e940, 2025-05-08)"
   xmlns:inkscape="http://www.inkscape.org/namespaces/inkscape"
   xmlns:sodipodi="http://sodipodi.sourceforge.net/DTD/sodipodi-0.dtd"
   xmlns="http://www.w3.org/2000/svg"
   xmlns:svg="http://www.w3.org/2000/svg"><sodipodi:namedview
     id="namedview1"
     pagecolor="#8b8b8b"
     bordercolor="#000000"
     borderopacity="0.25"
     inkscape:showpageshadow="2"
     inkscape:pageopacity="0.0"
     inkscape:pagecheckerboard="0"
     inkscape:deskcolor="#d1d1d1"
     inkscape:document-units="mm"
     inkscape:zoom="0.66547281"
     inkscape:cx="358.3918"
     inkscape:cy="49.588803"
     inkscape:window-width="3008"
     inkscape:window-height="1639"
     inkscape:window-x="0"
     inkscape:window-y="25"
     inkscape:window-maximized="0"
     inkscape:current-layer="layer1" /><defs
     id="defs1" /><g
     inkscape:label="Layer 1"
     inkscape:groupmode="layer"
     id="layer1"
     transform="translate(21.697909,-121.44375)"
     style="fill:#3f4443;fill-opacity:1"><path
       id="path2"
       style="display:inline;fill:#3f4443;fill-opacity:1"
       d="M 156.63281 121.44375 L 156.63281 123.825 C 156.63281 125.13469 156.53441 126.20625 156.41422 126.20625 C 156.29406 126.20625 155.90711 125.89158 155.55432 125.50707 C 152.75358 122.45445 146.96501 120.83603 142.34531 121.81375 C 138.84244 122.55511 135.35478 124.74414 133.88329 127.12506 L 133.32932 128.02113 L 131.28914 125.9613 C 128.82872 123.47772 126.72174 122.37243 123.33096 121.78636 C 120.65171 121.32327 117.74618 121.58179 115.28649 122.50208 C 113.31626 123.23924 110.86419 125.06628 109.63464 126.7132 L 108.64969 128.0325 L 107.09578 126.33699 C 105.26393 124.33785 103.21656 123.03189 100.71167 122.26437 C 99.038554 121.75171 98.274113 121.70833 90.855944 121.70833 L 82.814058 121.70833 L 82.814058 124.12576 L 82.814058 126.54318 L 81.524731 125.33705 C 78.984586 122.96104 75.542343 121.70622 71.579602 121.71143 C 67.812142 121.71643 64.775174 122.76773 62.342956 124.90865 L 61.118225 125.98663 L 61.118225 123.84774 L 61.118225 121.70833 L 48.683325 121.70833 L 36.247908 121.70833 L 36.247908 124.08958 C 36.247908 125.39926 36.208091 126.47083 36.159541 126.47083 C 36.110991 126.47083 35.549364 125.98892 34.911556 125.4001 C 33.308767 123.92042 30.08436 122.36005 27.873225 121.9941 C 26.59346 121.7823 19.069231 121.71608 2.2489497 121.76776 L -21.56355 121.84062 L -21.63073 152.99531 L -21.697909 184.15 L -14.023959 184.15 L -6.3500086 184.15 L -6.3500086 171.31771 L -6.3500086 158.48542 L -3.5718836 158.48542 L -0.79375861 158.48542 L -0.79375861 171.31771 L -0.79375861 184.15 L 25.995304 184.14897 C 40.729289 184.14849 54.659601 184.07036 56.951554 183.97533 L 61.118741 183.80273 L 61.118741 181.59202 L 61.118741 179.3813 L 62.640096 180.62102 C 65.435884 182.89938 68.406284 183.88782 72.442598 183.88232 C 76.118707 183.87732 79.178254 182.80787 81.589843 180.6851 L 82.814575 179.60712 L 82.814575 181.74601 L 82.814575 183.88542 L 108.87603 183.88542 L 134.93749 183.88542 L 134.93749 181.53931 L 134.93749 179.19268 L 135.88214 180.08358 C 138.93815 182.96577 144.0812 184.3993 148.61986 183.63375 C 150.87636 183.25314 153.78982 181.92046 155.25046 180.60086 C 155.82809 180.07901 156.37543 179.65208 156.46693 179.65208 C 156.55843 179.65208 156.63332 180.62364 156.63332 181.81112 L 156.63332 183.97017 L 192.55051 183.79653 C 212.30495 183.70103 228.97371 183.62247 229.59218 183.62187 L 230.71666 183.62083 L 230.71666 181.36877 L 230.71666 179.11672 L 232.13776 180.27427 C 234.90904 182.53151 238.06346 183.62083 241.82916 183.62083 C 243.07769 183.62083 244.79929 183.43851 245.65476 183.21569 C 250.54629 181.94161 254.33922 178.09897 255.06194 173.68552 C 255.39727 171.63773 255.39572 159.61256 255.05988 157.55937 C 254.28087 152.79646 249.67588 148.37517 244.41608 147.34036 L 242.87457 147.03702 L 242.94692 142.90549 L 243.01978 138.77396 L 249.17135 138.70316 L 255.32291 138.63185 L 255.32084 136.05733 C 255.31784 130.70395 254.36718 128.12528 251.37741 125.35721 C 248.36128 122.56474 245.43717 121.44375 241.16718 121.44375 C 236.96419 121.44375 233.83154 122.66556 231.14506 125.35204 C 230.32715 126.16996 229.6559 126.90487 229.65367 126.98553 C 229.65167 127.06623 229.54727 127.29398 229.42216 127.49144 C 229.2511 127.76139 228.71066 127.36513 227.24349 125.89361 C 226.09164 124.73835 224.63154 123.59126 223.67988 123.09378 C 220.41737 121.38827 221.8183 121.45219 187.6552 121.44788 L 156.63281 121.44375 z M 199.14184 124.61875 L 202.14166 124.61875 L 202.14166 126.86771 L 202.14166 129.11667 L 197.24687 129.11667 L 192.35207 129.11667 L 192.35207 139.7 L 192.35207 150.28333 L 197.24687 150.28333 L 202.14166 150.28333 L 202.14166 152.53229 L 202.14166 154.78125 L 197.24687 154.78125 L 192.35207 154.78125 L 192.35207 165.36458 L 192.35207 175.94792 L 197.24687 175.94792 L 202.14166 175.94792 L 202.14166 178.19687 L 202.14166 180.44583 L 193.5427 180.44583 L 184.94374 180.44583 L 184.94374 152.70644 L 184.94374 124.96757 L 190.54288 124.7929 C 193.62228 124.69695 197.49181 124.61875 199.14184 124.61875 z M 213.25416 124.76396 C 218.83302 124.77596 219.30451 124.8153 220.75344 125.3877 C 223.00807 126.27837 224.86193 127.90113 225.88801 129.88303 L 226.74791 131.54391 L 226.74791 139.54394 C 226.74791 148.68132 226.66472 149.1714 224.75113 151.29981 L 223.59668 152.58397 L 224.47001 153.43043 C 224.95047 153.8961 225.6297 154.83691 225.97948 155.52126 L 226.61562 156.76562 L 226.68951 168.60573 L 226.76393 180.44583 L 223.05149 180.44583 L 219.33957 180.44583 L 219.33957 168.429 C 219.33957 161.81971 219.26564 156.21933 219.17524 155.98376 C 218.90512 155.27985 217.60774 154.78125 216.04572 154.78125 L 214.57707 154.78125 L 214.57707 167.61354 L 214.57707 180.44583 L 210.87291 180.44583 L 207.16874 180.44583 L 207.16874 152.79688 C 207.16874 137.58995 207.19849 125.05862 207.23489 124.94948 C 207.27129 124.84036 209.97994 124.75696 213.25416 124.76396 z M 241.56457 124.76758 C 243.85467 124.75258 244.231 124.82433 245.79791 125.57786 C 249.47027 127.34384 251.1147 129.64416 251.30558 133.28075 L 251.4203 135.46667 L 247.68306 135.46667 L 243.94582 135.46667 L 243.94582 132.94124 C 243.94582 130.61255 243.89508 130.36505 243.29625 129.76624 C 242.45909 128.92908 240.8758 128.882 239.88044 129.66495 L 239.18332 130.21324 L 239.18332 139.7 L 239.18332 149.18728 L 239.83031 149.69577 C 240.26733 150.03954 241.09054 150.25628 242.36866 150.36343 C 245.75705 150.6475 248.91263 152.5971 250.43638 155.34814 L 251.22187 156.76614 L 251.30248 164.7548 C 251.35248 169.72227 251.27838 173.13017 251.10714 173.76614 C 250.44805 176.21382 248.11892 178.58421 245.32817 179.64743 C 243.69638 180.26911 240.84782 180.52047 239.25464 180.18332 C 237.36517 179.78346 235.80783 178.94948 234.3154 177.538 C 232.49014 175.81175 231.76439 174.17576 231.69489 171.63293 L 231.6427 169.73073 L 235.41301 169.65734 L 239.18332 169.58396 L 239.18332 172.21791 C 239.18332 174.74821 239.2107 174.87335 239.88044 175.40015 C 240.26387 175.70175 240.92441 175.94843 241.34857 175.94843 C 242.29527 175.94843 243.55988 175.32342 243.78149 174.74592 C 243.87192 174.51035 243.94582 170.21422 243.94582 165.1987 L 243.94582 156.07936 L 243.28695 155.46906 C 242.78501 155.00387 242.18809 154.81754 240.78013 154.68668 C 239.76369 154.59218 238.27481 154.26902 237.47128 153.96838 C 235.53708 153.24471 233.33319 151.21223 232.38219 149.27564 L 231.6427 147.77031 L 231.6427 139.70052 C 231.6427 131.77013 231.65342 131.60687 232.2716 130.23908 C 233.10593 128.39317 235.49981 126.17941 237.52038 125.38563 C 238.71417 124.91664 239.60401 124.78099 241.56457 124.76809 L 241.56457 124.76758 z M 160.33749 124.88385 L 164.03907 124.88385 L 167.74066 124.88385 L 167.80939 137.65 L 167.87812 150.41614 L 169.11112 150.49572 C 170.69607 150.59813 172.16763 149.98927 172.50988 149.08909 C 172.6697 148.66872 172.77291 143.78808 172.77291 136.64076 L 172.77291 124.88385 L 176.48999 124.88385 L 180.20708 124.88385 L 180.12801 136.45937 C 180.05171 147.63743 180.02966 148.07705 179.48361 149.25807 C 179.17258 149.93073 178.4691 150.97771 177.9204 151.58506 L 176.92253 152.68939 L 177.86252 153.66969 C 178.3794 154.20869 179.08288 155.18525 179.42573 155.8401 L 180.04895 157.03073 L 180.12801 168.73854 L 180.20656 180.44635 L 176.49723 180.44635 L 172.78841 180.44635 L 172.71451 168.28275 L 172.64062 156.11915 L 172.04685 155.52539 C 171.57236 155.05105 171.08018 154.91043 169.59946 154.82673 L 167.74582 154.72234 L 167.74582 167.58409 L 167.74582 180.44635 L 164.04166 180.44635 L 160.33749 180.44635 L 160.33749 152.6651 L 160.33749 124.88385 z M 121.50627 124.91072 C 122.42819 124.94399 123.35636 125.09491 124.26527 125.37426 C 127.28432 126.30216 129.97029 128.84079 130.69537 131.45141 C 130.87009 132.08054 130.96624 140.90948 130.96719 156.43541 L 130.96822 180.44635 L 127.26406 180.44635 L 123.55989 180.44635 L 123.55989 169.86302 L 123.55989 159.27968 L 121.18174 159.27968 L 118.80359 159.27968 L 118.73435 169.92916 L 118.6651 180.57864 L 115.01313 180.63032 C 112.30452 180.66852 111.32876 180.59661 111.23506 180.3523 C 111.16556 180.17116 111.14207 169.13449 111.18287 155.82666 L 111.25728 131.63073 L 111.91254 130.30781 C 113.63087 126.83805 117.51131 124.76652 121.50627 124.91072 z M 71.827648 124.97738 C 74.541683 124.95697 77.287655 125.94253 79.35122 128.01441 C 81.085032 129.75521 81.587909 130.93549 81.709216 133.54844 L 81.810502 135.73125 L 78.079463 135.73125 L 74.347908 135.73125 L 74.347908 133.20582 C 74.347908 130.87713 74.297137 130.62962 73.698335 130.03082 C 72.795845 129.12833 71.137471 129.12833 70.234981 130.03082 L 69.585408 130.6804 L 69.585408 152.79688 L 69.585408 174.91439 L 70.234981 175.56344 C 71.137471 176.46593 72.795845 176.46593 73.698335 175.56344 C 74.297138 174.96463 74.347908 174.71713 74.347908 172.38844 L 74.347908 169.86302 L 78.079463 169.86302 L 81.810502 169.86302 L 81.709216 172.04583 C 81.644526 173.43935 81.433524 174.58485 81.125789 175.21411 C 79.20779 179.13606 74.331479 181.35453 69.656722 180.43188 C 66.984918 179.90455 64.094215 177.82578 62.879874 175.55828 L 62.309366 174.49323 L 62.309366 152.79739 L 62.309366 131.10156 L 63.032836 129.87114 C 64.90116 126.69296 68.338174 125.0041 71.827648 124.9779 L 71.827648 124.97738 z M 40.084366 125.01614 L 48.643534 125.01614 L 57.202701 125.01614 L 57.203218 127.13281 L 57.203218 129.24948 L 52.282071 129.32131 L 47.360408 129.39365 L 47.360408 139.97078 L 47.360408 150.54843 L 52.233496 150.54843 L 57.106583 150.54843 L 57.202701 152.46666 C 57.255651 153.52168 57.252543 154.53372 57.195983 154.71562 C 57.118613 154.96445 55.888737 155.04635 52.226778 155.04635 L 47.360408 155.04635 L 47.360408 165.62968 L 47.360408 176.21302 L 52.234529 176.21302 L 57.108133 176.21302 L 57.203735 178.26354 C 57.256195 179.39133 57.258413 180.40336 57.208903 180.5125 C 57.159383 180.62164 53.255486 180.71093 48.53398 180.71093 L 39.949491 180.71093 L 40.017187 152.86354 L 40.084366 125.01614 z M 86.651033 125.01614 L 92.868741 125.01614 L 99.08645 125.01614 L 100.8388 125.84658 C 103.16317 126.94788 104.59493 128.29008 105.58011 130.29127 L 106.39091 131.93768 L 106.3103 140.25087 L 106.2302 148.56406 L 105.47107 149.934 C 105.05353 150.6874 104.37386 151.62784 103.96057 152.0238 L 103.2092 152.74365 L 104.36468 154.02884 C 106.36049 156.2489 106.36249 156.26364 106.36249 169.24858 L 106.36249 180.71093 L 102.65832 180.71093 L 98.954158 180.71093 L 98.954158 168.52821 L 98.954158 156.34498 L 98.304585 155.69592 C 97.747551 155.13885 97.409164 155.04635 95.925919 155.04635 L 94.196826 155.04635 L 94.128096 167.8125 L 94.059366 180.57864 L 90.416178 180.65202 C 87.649009 180.70799 86.742608 180.64418 86.643798 180.38796 C 86.572918 180.20148 86.54533 167.66669 86.58282 152.53281 L 86.651033 125.01614 z M 145.65312 125.01976 C 148.24672 125.01676 148.72194 125.09115 150.01874 125.70654 C 151.96599 126.63062 153.70467 128.22417 154.64792 129.94917 C 155.31499 131.16909 155.42388 131.65594 155.43288 133.44974 L 155.4427 135.53333 L 151.80468 135.62531 L 148.16666 135.71781 L 148.16666 133.1991 C 148.16666 130.8894 148.11362 130.62842 147.52794 130.04271 C 147.17667 129.69144 146.55888 129.32038 146.15489 129.21899 C 145.18523 128.97562 143.61967 129.81202 143.37419 130.70468 C 143.08501 131.75623 143.10282 173.96523 143.39279 174.72784 C 143.98774 176.29268 146.55427 176.60466 147.62612 175.24202 C 148.07825 174.66725 148.16666 174.17065 148.16666 172.20913 L 148.16666 169.86302 L 151.90493 169.86302 L 155.6432 169.86302 L 155.52021 171.91354 C 155.36948 174.42703 154.57854 176.13052 152.801 177.76899 C 150.82848 179.58719 149.03198 180.27825 146.04999 180.36625 C 144.48167 180.41255 143.13847 180.30876 142.47812 180.09082 C 139.89031 179.23666 137.71592 177.47368 136.56737 175.29783 L 135.86353 173.96406 L 135.86353 152.79739 L 135.86353 131.63073 L 136.60612 130.11867 C 137.47327 128.3528 139.14526 126.7826 141.25494 125.7515 C 142.60119 125.09358 143.01999 125.02328 145.65312 125.02028 L 145.65312 125.01976 z M 15.345825 125.1226 L 21.761971 125.20218 C 28.077457 125.28028 28.201842 125.29167 29.679834 125.98456 C 31.598972 126.88422 33.456887 128.599 34.35345 130.29747 L 35.057283 131.63073 L 35.057283 139.96562 C 35.057283 147.92063 35.031705 148.35532 34.491943 149.52266 C 34.180917 150.19532 33.486235 151.23258 32.948368 151.82794 L 31.97065 152.91056 L 32.910644 153.87846 C 33.427779 154.41094 34.122461 155.39773 34.454219 156.07109 C 35.050528 157.28141 35.058328 157.42957 35.136348 169.00364 L 35.214896 180.71093 L 31.498327 180.71093 L 27.781241 180.71093 L 27.781241 168.68738 L 27.781241 156.66331 L 27.151822 155.93157 C 26.596139 155.28555 26.301183 155.18738 24.638281 155.09338 L 22.754158 154.98692 L 22.754158 167.84919 L 22.754158 180.71093 L 19.049991 180.71093 L 15.345825 180.71093 L 15.345825 152.91676 L 15.345825 125.1226 z M 6.8791581 125.14792 L 10.583325 125.14792 L 10.583325 152.92917 L 10.583325 180.71093 L 6.8791581 180.71093 L 3.1749914 180.71093 L 3.1749914 152.92968 L 3.1749914 125.14843 L 6.8791581 125.14792 z M -17.727092 125.14843 L -9.1281336 125.14843 L -0.52917528 125.14843 L -0.52917528 127.2651 L -0.52917528 129.38177 L -5.4239669 129.38177 L -10.318759 129.38177 L -10.318759 140.09739 L -10.318759 150.81302 L -5.4239669 150.81302 L -0.52917528 150.81302 L -0.52917528 152.92968 L -0.52917528 155.04635 L -5.4239669 155.04635 L -10.318759 155.04635 L -10.318759 167.87864 L -10.318759 180.71093 L -14.022925 180.71093 L -17.727092 180.71093 L -17.727092 152.92968 L -17.727092 125.14843 z M 94.191658 128.05885 L 94.191658 137.18698 L 94.191658 146.3151 L 95.659785 146.3151 C 96.467376 146.3151 97.465002 146.14094 97.876704 145.92804 C 98.288405 145.71514 98.699437 145.34815 98.789827 145.11259 C 98.880228 144.87702 98.954158 141.31052 98.954158 137.18698 C 98.954158 133.06344 98.880217 129.49692 98.789827 129.26136 C 98.51971 128.55744 97.221806 128.05885 95.659785 128.05885 L 94.191658 128.05885 z M 214.57707 128.05885 L 214.57707 137.05468 L 214.57707 146.05052 L 216.26121 146.05052 C 217.56435 146.05052 218.10303 145.92655 218.64246 145.50223 L 219.33957 144.95394 L 219.33957 137.11876 C 219.33957 129.43842 219.32828 129.27149 218.76442 128.67122 C 218.27205 128.14716 217.92882 128.05885 216.38317 128.05885 L 214.57707 128.05885 z M 121.19414 128.11259 C 120.5765 128.09449 119.95277 128.24708 119.49502 128.60714 L 118.79791 129.15542 L 118.79791 139.59768 L 118.79791 150.03994 L 121.11301 149.96346 L 123.42812 149.88698 L 123.50201 139.9651 C 123.54249 134.50807 123.51103 129.77734 123.43173 129.45256 C 123.2356 128.64648 122.22354 128.14269 121.19414 128.11259 z M 22.754158 128.32343 L 22.754158 137.31927 L 22.754158 146.3151 L 24.618127 146.3151 C 26.244528 146.3151 26.565052 146.23221 27.131669 145.66553 L 27.781241 145.01647 L 27.781241 137.31927 L 27.781241 129.62258 L 27.131669 128.97301 C 26.565052 128.40644 26.244528 128.32343 24.618127 128.32343 L 22.754158 128.32343 z M 201.08332 132.34024 L 203.0677 132.42396 L 203.13798 139.76615 L 203.20826 147.10833 L 199.76454 147.10833 L 196.32082 147.10833 L 196.32082 139.85141 L 196.32082 132.59449 L 197.70989 132.42551 C 198.47387 132.33261 199.99192 132.29427 201.08332 132.34024 z M 58.208325 132.54075 L 58.208325 139.95683 L 58.208325 147.37292 L 54.764607 147.37292 L 51.32089 147.37292 L 51.39117 140.03073 L 51.46145 132.68854 L 54.834887 132.61464 L 58.208325 132.54075 z M -6.3500086 132.82083 L -3.5718836 132.82083 L -0.79375861 132.82083 L -0.79375861 140.09687 L -0.79375861 147.37292 L -3.5718836 147.37292 L -6.3500086 147.37292 L -6.3500086 140.09687 L -6.3500086 132.82083 z M 147.10832 138.90625 L 151.87082 138.90625 L 156.63332 138.90625 L 156.63332 152.66458 L 156.63332 166.42292 L 151.87082 166.42292 L 147.10832 166.42292 L 147.10832 152.66458 L 147.10832 138.90625 z M 77.942521 139.11657 C 80.501621 139.07367 82.644746 139.08801 82.705021 139.14861 C 82.765301 139.20921 82.814575 145.37073 82.814575 152.8408 L 82.814575 166.42292 L 78.052075 166.42292 L 73.289575 166.42292 L 73.289575 152.80876 L 73.289575 139.1946 L 77.942521 139.11657 z M 229.38392 151.61762 C 229.38692 151.61733 229.38916 151.61743 229.39116 151.61762 C 229.46526 151.62362 229.98364 152.22197 230.54303 152.94725 C 232.25624 155.16851 235.41273 157.02149 238.67741 157.72164 L 239.97707 158.00017 L 239.97707 162.079 L 239.97707 166.15833 L 235.34687 166.15833 L 230.71666 166.15833 L 230.71666 162.50274 C 230.71666 158.10874 230.4013 156.19683 229.34982 154.21591 C 228.65565 152.90813 228.60131 152.65562 228.90747 152.16539 C 229.0935 151.86751 229.30356 151.62674 229.38392 151.61762 z M 196.32082 158.22083 L 199.76041 158.22083 L 203.19999 158.22083 L 203.19999 165.49687 L 203.19999 172.77292 L 199.76041 172.77292 L 196.32082 172.77292 L 196.32082 165.49687 L 196.32082 158.22083 z M 58.076033 158.35312 L 58.146313 165.69531 L 58.216593 173.0375 L 54.772876 173.0375 L 51.329158 173.0375 L 51.329158 165.76146 L 51.329158 158.48542 L 53.644262 158.45854 C 54.91757 158.44374 56.435617 158.4139 57.0177 158.3924 L 58.076033 158.35312 z " /></g></svg>
