<?xml version="1.0" encoding="UTF-8" standalone="no"?>
<!-- Created with Inkscape (http://www.inkscape.org/) -->

<svg
   width="3670.1653"
   height="3670.1653"
   viewBox="0 0 946.03396 946.03396"
   version="1.1"
   id="svg1"
   xml:space="preserve"
   inkscape:version="1.4.2 (ebf0e940, 2025-05-08)"
   sodipodi:docname="logo-round.svg"
   inkscape:export-filename="firecrackers-ohio.svg"
   inkscape:export-xdpi="96"
   inkscape:export-ydpi="96"
   xmlns:inkscape="http://www.inkscape.org/namespaces/inkscape"
   xmlns:sodipodi="http://sodipodi.sourceforge.net/DTD/sodipodi-0.dtd"
   xmlns="http://www.w3.org/2000/svg"
   xmlns:svg="http://www.w3.org/2000/svg"><sodipodi:namedview
     id="namedview1"
     pagecolor="#909090"
     bordercolor="#000000"
     borderopacity="0.25"
     inkscape:showpageshadow="2"
     inkscape:pageopacity="0.0"
     inkscape:pagecheckerboard="0"
     inkscape:deskcolor="#383838"
     inkscape:document-units="mm"
     inkscape:zoom="0.17349207"
     inkscape:cx="-1086.505"
     inkscape:cy="2034.6751"
     inkscape:window-width="3008"
     inkscape:window-height="1639"
     inkscape:window-x="0"
     inkscape:window-y="25"
     inkscape:window-maximized="0"
     inkscape:current-layer="layer1"
     showguides="true"
     showborder="false" /><defs
     id="defs1" /><g
     inkscape:label="Layer 1"
     inkscape:groupmode="layer"
     id="layer1"
     transform="translate(125.41266,703.9268)"><circle
       style="fill:#000000;stroke-width:0.372607"
       id="circle3"
       cx="230.90984"
       cy="-347.60431"
       r="473.01697"
       transform="matrix(0,-1,-1,0,0,0)"
       inkscape:label="Circle 0" /><circle
       style="fill:#ffffff;stroke-width:0.360318"
       id="path1"
       cx="230.90985"
       cy="-347.60431"
       r="457.41675"
       transform="matrix(0,-1,-1,0,0,0)"
       inkscape:label="Circle 1" /><circle
       style="display:inline;fill:#c20202;fill-opacity:1;stroke-width:0.924633"
       id="path2"
       cx="347.60431"
       cy="-230.90985"
       r="435.96283"
       inkscape:label="Circle 2" /><circle
       style="display:inline;fill:#ffffff;fill-opacity:1;stroke-width:0.186715"
       id="path3"
       cx="-230.90985"
       cy="-347.60431"
       r="295.95041"
       inkscape:label="Circle 3"
       transform="rotate(90)" /><circle
       style="display:inline;fill:#000000;fill-opacity:1;stroke-width:0.312965"
       id="path4"
       cx="347.60431"
       cy="-230.90985"
       r="274.71631"
       inkscape:label="Circle 4" /><g
       id="g206"
       transform="translate(110.88715,-975.66398)"
       inkscape:label="F Logo Group"><path
         id="path129"
         style="display:inline;fill:#ffffff"
         d="m 342.45186,520.86716 -1.34049,1.23455 c -3.66643,3.3767 -6.53739,5.98066 -8.25996,7.49153 -1.04751,0.91877 -4.1707,3.72988 -6.94014,6.24717 -3.82507,3.47681 -5.1814,4.51528 -5.6441,4.31963 -0.335,-0.14165 -2.5218,-1.21866 -4.85914,-2.39314 -3.96543,-1.99256 -6.90388,-3.27857 -10.74301,-4.701 -0.87313,-0.3235 -1.90534,-0.75535 -2.2934,-0.95963 -0.38805,-0.20429 -2.61039,-0.96488 -4.93872,-1.69034 -2.32834,-0.72545 -4.47146,-1.40856 -4.7625,-1.51825 -0.69926,-0.26356 -0.85221,-0.30621 -3.52795,-0.9772 -1.26118,-0.31627 -2.61022,-0.70615 -2.99827,-0.86662 -0.75579,-0.31254 -5.91889,-1.25492 -8.81961,-1.60972 -0.97014,-0.11867 -2.08157,-0.35239 -2.46962,-0.51935 -3.24345,-1.39546 -39.77014,-1.36342 -41.25691,0.0362 -0.18433,0.17353 -0.8987,0.32191 -1.5875,0.32918 -2.57677,0.0272 -13.91371,2.3839 -17.30386,3.59719 -0.29104,0.10417 -1.24353,0.37102 -2.11666,0.59325 -1.76402,0.44898 -5.76802,1.89931 -7.9375,2.87476 -5.3923,2.42451 -9.42269,4.52895 -11.51971,6.01565 -0.51502,0.36513 -1.13703,0.66404 -1.38183,0.66404 -0.24481,0 -1.61391,-0.72848 -3.04271,-1.61902 -4.00228,-2.49451 -11.76951,-6.14226 -13.0793,-6.14226 -0.27678,0 -1.00348,-0.2291 -1.61489,-0.50953 -2.7236,-1.24922 -11.37241,-1.85387 -28.45201,-1.98903 -5.14174,-0.0407 -9.58691,-0.19015 -9.87795,-0.33176 -0.29104,-0.14161 -9.22073,-0.37199 -19.84375,-0.51211 l -19.314585,-0.25477 v 37.24993 37.24992 l 19.651515,0.091 19.65151,0.0915 0.24547,0.8816 c 0.13491,0.48507 0.26126,22.51562 0.2806,48.9567 l 0.0351,48.07458 -0.81649,0.31058 c -2.53678,0.96449 -10.50659,8.60701 -12.81214,12.28607 -0.69839,1.11446 -1.65496,2.60046 -2.12597,3.30212 -0.471,0.70166 -1.48573,2.92399 -2.25464,4.93872 -3.98839,10.45062 -4.04143,21.22301 -0.15451,31.33866 1.5502,4.03437 1.55036,4.03451 3.97237,7.77885 1.83222,2.83254 9.45307,10.93628 10.28464,10.93628 0.18989,0 1.38744,0.72851 2.66134,1.61903 l 2.31613,1.61902 -0.10903,57.03011 c -0.0933,48.86231 -0.18226,57.21958 -0.62167,58.35303 l -0.51263,1.32291 H 116.72455 97.231685 v 38.45295 38.45295 l 24.782465,-0.005 c 24.62543,-0.005 32.26866,-0.24914 38.01215,-1.21233 5.03891,-0.84502 8.6117,-1.60403 9.25525,-1.96578 0.33691,-0.18939 0.87556,-0.34416 1.19683,-0.34416 0.64796,0 5.1979,-1.26729 6.30452,-1.75597 0.38806,-0.17136 1.29875,-0.49298 2.02365,-0.71468 0.7249,-0.22171 1.40915,-0.55032 1.52032,-0.73019 0.11116,-0.17987 0.43908,-0.32711 0.72864,-0.32711 0.62975,0 8.57981,-3.8673 9.24646,-4.49792 0.25639,-0.24253 0.65345,-0.44324 0.88212,-0.44596 0.22868,-0.003 2.71752,1.14092 5.53093,2.54144 2.8134,1.40052 5.59169,2.73473 6.17378,2.96468 0.58208,0.22994 1.67463,0.68122 2.42828,1.00304 2.02381,0.86418 4.79823,1.74601 11.68249,3.71192 2.65756,0.7589 9.75234,1.77507 12.4535,1.78387 0.91169,0.003 1.89591,0.15963 2.18695,0.3483 0.33535,0.2174 12.28765,0.31256 32.63211,0.25941 l 32.10244,-0.0842 0.0899,-38.18837 0.0899,-38.18836 h -22.80274 c -21.93598,0 -22.84389,-0.0256 -23.90707,-0.68265 -2.19871,-1.35887 -3.86787,-4.82865 -4.27261,-8.88214 -0.12373,-1.23915 -0.3748,-2.57043 -0.5581,-2.95848 -0.20574,-0.43557 -0.29748,-20.14442 -0.23926,-51.50538 l 0.0946,-50.8 44.00869,-0.0899 c 34.85179,-0.0709 44.00881,-0.18104 44.00765,-0.52917 -8e-4,-0.24178 -0.54689,-1.31255 -1.21388,-2.3797 -0.66698,-1.06715 -2.02514,-3.28999 -3.01791,-4.93923 -0.99278,-1.64924 -2.82426,-4.66514 -4.07003,-6.70243 -1.24578,-2.03729 -2.43072,-4.02202 -2.63343,-4.41007 -0.53156,-1.01759 -1.36759,-2.42132 -6.87865,-11.55847 -2.71639,-4.50368 -5.05776,-8.48207 -5.2033,-8.8408 -0.26071,-0.64259 0.23332,-1.63801 3.44372,-6.94066 0.64609,-1.06715 1.62347,-2.63025 2.17247,-3.47369 0.54901,-0.84344 1.15731,-1.7945 1.35134,-2.11305 0.19403,-0.31855 1.06548,-1.69216 1.93683,-3.05253 0.87134,-1.36037 1.69525,-2.73896 1.8309,-3.0639 0.13564,-0.32494 0.68966,-1.27744 1.23093,-2.11666 0.54127,-0.83923 1.14612,-1.79265 1.34411,-2.11822 1.25379,-2.06163 4.0991,-6.69819 6.28178,-10.23658 1.39973,-2.26912 3.24828,-5.28504 4.10828,-6.70244 0.86001,-1.41741 1.78826,-2.84509 2.06292,-3.17241 0.97213,-1.15851 0.19409,-1.34514 -5.60844,-1.34514 -3.67313,0 -5.56842,-0.12338 -5.42654,-0.35295 0.11992,-0.19403 0.57933,-0.35243 1.02061,-0.35243 0.44128,0 0.9078,-0.10577 1.03663,-0.23461 0.12884,-0.12883 1.67212,-0.5975 3.42976,-1.0418 1.75764,-0.44431 4.09956,-1.23458 5.20434,-1.75597 7.23334,-3.41368 9.44729,-4.70394 12.8173,-7.47034 1.35408,-1.11155 3.08909,-2.46861 3.85506,-3.01584 0.76596,-0.54724 1.66933,-1.40082 2.00763,-1.89652 0.3383,-0.4957 1.15421,-1.47641 1.81333,-2.17972 0.65912,-0.70331 2.12872,-2.54882 3.26595,-4.10104 1.13723,-1.55222 2.2255,-3.01404 2.41794,-3.24838 0.19243,-0.23435 0.34985,-0.56027 0.34985,-0.7245 0,-0.16423 0.44893,-1.00718 0.99787,-1.87276 1.03628,-1.63405 3.78796,-8.05105 4.37648,-10.20609 0.18545,-0.6791 0.54832,-1.71079 0.80615,-2.29288 0.4226,-0.95409 1.41669,-4.96767 1.79162,-7.23212 0.25435,-1.53619 0.49371,-2.93204 0.90744,-5.29167 0.51327,-2.92731 0.49218,-17.31894 -0.0305,-20.81371 -0.21764,-1.45521 -0.4671,-3.12209 -0.55449,-3.70417 -0.41187,-2.74333 -1.47844,-7.52562 -1.88825,-8.46667 -0.169,-0.38806 -0.90231,-2.61038 -1.62988,-4.93871 -0.72756,-2.32833 -1.64193,-4.94772 -2.03192,-5.82084 -1.94774,-4.36066 -4.63147,-9.63723 -5.73866,-11.28251 -1.3037,-1.93729 -1.48017,-2.84989 -0.86507,-4.48138 0.37261,-0.98833 2.35749,-3.28611 2.83859,-3.28611 0.13881,0 1.83703,-1.19062 3.77393,-2.64583 1.93691,-1.45521 3.64285,-2.64583 3.79098,-2.64583 0.14813,0 1.07797,-0.62104 2.06603,-1.37976 0.98807,-0.75873 2.82849,-2.06842 4.08967,-2.91042 1.35855,-0.90701 2.33285,-1.81854 2.39055,-2.23656 0.0616,-0.44624 -0.84618,-1.85598 -2.46962,-3.83594 -1.41175,-1.72178 -2.72569,-3.38436 -2.91972,-3.69486 -0.29069,-0.46519 -4.24879,-5.50581 -7.24451,-9.2258 -1.86905,-2.32092 -6.55363,-8.38147 -6.86677,-8.88369 -0.37168,-0.59611 -4.46291,-5.75115 -9.12916,-11.50318 -1.52853,-1.88419 -3.14765,-3.98159 -3.59823,-4.66069 -0.45057,-0.6791 -1.1356,-1.6316 -1.52238,-2.11667 z m -87.44944,81.58675 c 0.2844,0 0.61782,0.0839 1.08313,0.25218 0.65217,0.23582 1.92612,0.42892 2.83084,0.42892 h 1.64486 l -0.57464,1.32291 c -1.22485,2.82016 -1.51258,3.52959 -2.54197,6.26164 -1.38344,3.67173 -2.7595,8.10102 -3.06854,9.87795 -0.13498,0.77611 -0.36551,1.56968 -0.51212,1.76371 -0.69066,0.91401 -2.15583,12.98492 -2.16265,17.81545 -0.004,2.61315 0.64224,9.28542 1.11001,11.46494 2.13762,9.96005 7.53269,19.12855 15.10657,25.67181 1.29587,1.11953 2.59405,2.25248 2.88509,2.51768 0.73391,0.66876 6.28389,4.44262 6.53345,4.44262 0.11186,0 1.02931,0.52803 2.03864,1.17306 1.00932,0.64504 2.62861,1.46566 3.59875,1.82418 0.97014,0.35852 1.92263,0.76455 2.11666,0.90227 0.99904,0.70911 5.3946,2.18913 9.49503,3.19722 2.53901,0.62422 4.76731,1.26727 4.95164,1.42885 0.18432,0.16158 -11.99992,0.29404 -27.07587,0.29404 h -27.41073 v -41.34011 c 0,-45.69604 -0.0871,-43.87493 2.23035,-46.623 1.15148,-1.36541 2.69951,-1.96946 5.09427,-1.98696 0.63322,-0.005 1.46051,-0.20136 1.83813,-0.43718 0.26942,-0.16826 0.50469,-0.25218 0.7891,-0.25218 z" /><path
         style="display:inline;fill:#c20202;fill-opacity:1"
         d="m 228.54646,950.64285 c -0.97013,-0.074 -1.9147,-0.2832 -2.09902,-0.4656 -0.18433,-0.1824 -0.74505,-0.3316 -1.24604,-0.3316 -0.50099,0 -1.77893,-0.2415 -2.83986,-0.5367 -1.06093,-0.2952 -3.4955,-0.9323 -5.41015,-1.4158 -1.91466,-0.4834 -3.89903,-1.0875 -4.40973,-1.3423 -0.51069,-0.25475 -1.45733,-0.72891 -2.10364,-1.05365 -0.64632,-0.32474 -1.34274,-0.59043 -1.5476,-0.59043 -0.5674,0 -6.30764,-2.83674 -7.50784,-3.71026 -0.58209,-0.42365 -1.8124,-1.12569 -2.73403,-1.56009 -0.92163,-0.4344 -1.67569,-0.9344 -1.67569,-1.11112 0,-0.17672 -0.1756,-0.32131 -0.39021,-0.32131 -0.21461,0 -0.99152,-0.47625 -1.72646,-1.05833 -0.73494,-0.58209 -1.50819,-1.05834 -1.71833,-1.05834 -0.21014,0 -0.64212,-0.39687 -0.95995,-0.88194 -0.79351,-1.21105 -1.32962,-1.11244 -2.87369,0.52858 -0.72996,0.7758 -1.52198,1.4108 -1.76004,1.41112 -0.23806,3.1e-4 -0.70057,0.40918 -1.02779,0.90859 -0.39094,0.59664 -0.81713,0.84991 -1.24285,0.73858 -0.43604,-0.11402 -0.64802,0.0216 -0.64827,0.4149 -3.1e-4,0.51053 -3.19376,2.67073 -3.98125,2.69312 -0.1526,0.004 -0.42061,0.23951 -0.59557,0.52261 -0.17497,0.2831 -1.16137,0.81247 -2.192,1.17638 -1.03063,0.36391 -2.38981,0.84581 -3.0204,1.0709 -0.63059,0.22509 -1.14653,0.52916 -1.14653,0.67571 0,0.14655 -0.35718,0.2715 -0.79375,0.27767 -0.43656,0.006 -1.09495,0.23921 -1.46308,0.51787 -0.36813,0.27864 -0.81165,0.41864 -0.98559,0.31114 -0.17394,-0.10746 -0.55127,-4e-4 -0.8385,0.238 -0.28723,0.2384 -0.62286,0.3328 -0.74584,0.2098 -0.12298,-0.123 -0.42588,-0.056 -0.67311,0.1495 -0.24722,0.2052 -2.08746,0.6869 -4.0894,1.0706 -2.00194,0.3836 -3.95739,0.7724 -4.34545,0.8641 -0.38805,0.092 -1.4993,0.299 -2.46944,0.4608 -0.97014,0.1619 -1.92264,0.337 -2.11667,0.3891 -0.19403,0.052 -0.51153,0.06 -0.70555,0.017 -0.7849,-0.1725 -2.84359,0.072 -3.15737,0.3757 -0.19476,0.1882 -8.06288,0.3238 -18.78541,0.3238 h -18.45028 v -21.6812 -21.68127 l 14.72847,-0.10276 14.72847,-0.10277 1.5875,-0.93879 c 2.11066,-1.24816 4.67589,-3.86694 5.57894,-5.6954 1.49044,-3.01775 2.18218,-4.81602 2.18218,-5.67285 0,-0.48427 0.14075,-0.96747 0.31278,-1.0738 0.71272,-0.44048 1.22758,-5.8854 1.25326,-13.25388 0.01,-2.8134 -0.021,-30.47952 -0.0685,-61.48026 l -0.0864,-56.36498 -0.97014,-0.39906 c -0.53358,-0.21948 -1.12889,-0.42225 -1.32292,-0.4506 -0.19403,-0.0284 -1.14653,-0.42719 -2.11667,-0.88631 -0.97013,-0.45913 -1.84326,-0.86145 -1.94027,-0.89406 -0.90225,-0.30324 -1.78182,-0.78802 -2.82362,-1.55626 -1.38662,-1.02251 -2.41444,-1.68904 -3.1194,-2.02289 -0.65158,-0.30858 -3.93476,-3.61785 -3.93476,-3.96604 0,-0.15472 -0.31345,-0.56497 -0.69655,-0.91167 -0.3831,-0.3467 -0.80092,-0.95922 -0.92849,-1.36114 -0.12756,-0.40192 -0.44912,-0.94795 -0.71456,-1.2134 -0.26544,-0.26544 -0.48262,-0.78878 -0.48262,-1.16298 0,-0.37419 -0.15875,-0.68035 -0.35278,-0.68035 -0.19403,0 -0.35278,-0.22079 -0.35278,-0.49065 0,-0.26985 -0.31401,-1.18266 -0.69781,-2.02847 -0.38379,-0.84581 -0.70129,-2.0444 -0.70555,-2.66354 -0.004,-0.61914 -0.1665,-1.22382 -0.36053,-1.34373 -0.40754,-0.25188 -0.48831,-7.33216 -0.0882,-7.73062 0.14552,-0.14492 0.44756,-1.16357 0.6712,-2.26366 0.73704,-3.62557 2.79609,-8.28228 4.052,-9.16392 0.36116,-0.25354 0.65666,-0.60525 0.65666,-0.78159 0,-0.44156 1.71963,-2.16058 4.10474,-4.10328 2.03294,-1.65585 7.37441,-4.61521 9.70459,-5.37667 0.82278,-0.26887 1.36084,-0.70052 1.49437,-1.19882 0.11476,-0.42827 0.16396,-25.22617 0.10933,-55.10645 -0.0737,-40.29863 -0.20696,-54.764 -0.51612,-56.01707 -0.506,-2.05084 -2.18228,-5.54481 -3.62091,-7.54724 -1.08329,-1.50783 -3.51135,-3.63985 -4.14527,-3.63985 -0.19386,0 -0.44384,-0.23813 -0.55553,-0.52917 -0.11168,-0.29104 -0.42678,-0.52916 -0.70021,-0.52916 -0.27344,0 -1.11186,-0.26945 -1.86316,-0.59877 -1.99975,-0.87657 -2.01284,-0.87749 -15.91899,-1.11921 l -12.78911,-0.2223 -0.0873,-20.00947 -0.0873,-20.00947 3.88055,-0.0989 c 2.13431,-0.0544 4.43618,0.004 5.11528,0.13028 0.6791,0.12603 10.2041,0.33887 21.16667,0.47298 10.96256,0.13411 20.09069,0.36221 20.28472,0.5069 0.19402,0.14468 1.00737,0.29428 1.80743,0.33243 1.53089,0.073 1.72825,0.10494 4.54257,0.73532 1.75622,0.39337 9.06586,3.79639 9.28981,4.32489 0.0647,0.15263 0.27432,0.27751 0.46588,0.27751 0.19155,0 1.10135,0.635 2.02177,1.41111 0.92043,0.77611 1.78515,1.41111 1.92162,1.41111 0.32557,0 5.46861,5.2535 6.52427,6.6644 0.45132,0.60319 1.02751,1.09671 1.28043,1.09671 0.25291,0 1.07427,-0.75218 1.82525,-1.67152 1.79714,-2.20002 4.56906,-5.02754 4.94639,-5.0456 0.16477,-0.008 0.8492,-0.48413 1.52097,-1.05833 0.67177,-0.5742 1.4126,-1.044 1.6463,-1.044 0.23369,0 0.47781,-0.142 0.54249,-0.31555 0.12618,-0.33859 1.81963,-1.40878 3.82176,-2.41518 0.6791,-0.34136 1.28764,-0.73972 1.35231,-0.88524 0.0647,-0.14552 0.30516,-0.26458 0.53439,-0.26458 0.22924,0 0.98889,-0.30662 1.68811,-0.68138 0.98546,-0.52818 1.3727,-0.58767 1.72223,-0.26459 0.34886,0.32247 0.39477,0.31734 0.20288,-0.0227 -0.15822,-0.28032 0.11048,-0.58232 0.74199,-0.83393 0.54452,-0.21696 1.38691,-0.56147 1.87198,-0.76559 1.13453,-0.47742 1.682,-0.62879 3.0868,-0.85345 0.63059,-0.10085 1.14653,-0.32474 1.14653,-0.49754 0,-0.1728 0.32794,-0.31418 0.72875,-0.31418 0.40081,0 1.03906,-0.16608 1.41834,-0.36906 0.94272,-0.50453 6.45351,-1.74737 8.6034,-1.94032 0.96507,-0.0866 2.26305,-0.32526 2.88441,-0.53032 1.24877,-0.41213 8.65576,-1.27319 14.9401,-1.73677 5.21997,-0.38506 14.85321,-0.38557 18.69722,-9.8e-4 4.75808,0.47603 10.32245,1.31433 11.35694,1.71097 0.52249,0.20034 1.79249,0.46151 2.82222,0.58039 2.73192,0.31538 5.28415,0.90109 6.81112,1.56308 0.38805,0.16823 2.84868,0.97448 5.46805,1.79166 2.61938,0.81718 5.40794,1.78416 6.1968,2.14884 0.78886,0.36468 1.6223,0.66306 1.85208,0.66306 0.22978,0 0.41915,0.11906 0.4208,0.26458 0.002,0.14553 0.99385,0.56784 2.20487,0.93848 1.21101,0.37064 2.59872,0.9341 3.08378,1.25212 1.10169,0.72229 5.8994,3.02889 6.97249,3.35217 0.47777,0.14394 0.70318,0.40771 0.5608,0.65624 -0.13094,0.22857 -0.1106,0.30033 0.0452,0.15947 0.15579,-0.14086 1.33218,0.32497 2.61419,1.03518 1.28202,0.7102 2.68688,1.46045 3.12193,1.66721 0.43505,0.20677 0.79224,0.495 0.79375,0.64052 0.002,0.14553 0.17828,0.26459 0.3928,0.26459 0.21453,0 0.86171,0.39687 1.43818,0.88194 1.27627,1.07391 2.24955,1.12622 2.77253,0.14903 0.21596,-0.40353 0.60983,-0.64942 0.87639,-0.54713 0.27889,0.10702 0.4188,0.006 0.33001,-0.23723 -0.0848,-0.23265 0.33649,-0.81988 0.93614,-1.30495 0.59965,-0.48507 1.90744,-1.70888 2.9062,-2.71958 0.99876,-1.0107 2.33877,-2.22337 2.9778,-2.69483 0.63903,-0.47146 2.34556,-1.98965 3.79229,-3.37376 1.44673,-1.38411 2.63041,-2.42477 2.63041,-2.31258 0,0.11219 0.36808,-0.22392 0.81794,-0.74692 l 0.81794,-0.95091 1.32887,1.62171 c 0.73087,0.89194 1.23771,1.7692 1.12631,1.94946 -0.11141,0.18027 0.11235,0.41011 0.49724,0.51076 0.3849,0.10065 0.80279,0.45137 0.92866,0.77938 0.12587,0.328 0.68311,1.09372 1.23831,1.70159 0.55521,0.60787 1.09872,1.38645 1.20782,1.73017 0.10909,0.34373 0.42578,0.62496 0.70374,0.62496 0.27797,0 0.5054,0.17145 0.5054,0.381 0,0.20955 1.20567,1.80209 2.67928,3.53898 2.66819,3.1449 2.96989,3.94349 1.67719,4.43954 -0.63476,0.24358 -1.35744,0.81264 -2.77758,2.18713 -0.48034,0.4649 -0.87334,0.73053 -0.87334,0.5903 0,-0.14024 -0.43656,0.27314 -0.97014,0.91862 -0.53357,0.64548 -1.0892,1.22651 -1.23472,1.29119 -0.14552,0.0647 -0.26458,0.30755 -0.26458,0.53973 0,0.23218 -0.51594,0.91494 -1.14653,1.51724 -1.10726,1.0576 -2.34869,3.74943 -3.58314,7.7695 -0.61291,1.99596 -0.76942,7.48342 -0.24225,8.49336 0.17587,0.33692 0.5098,1.32695 0.74207,2.20008 0.23227,0.87312 0.61932,2.06375 0.86012,2.64583 0.24079,0.58208 0.48058,1.21708 0.53286,1.41111 0.0523,0.19403 0.5929,0.9811 1.20138,1.74904 1.38849,1.75239 2.04159,2.99455 1.78918,3.40296 -0.10743,0.17383 -0.0468,0.31606 0.13482,0.31606 0.2659,0 1.90971,3.20854 1.98809,3.88055 0.0113,0.097 0.37684,0.75075 0.81227,1.45275 0.43542,0.702 0.79168,1.68482 0.79168,2.18405 0,0.49922 0.14865,0.99954 0.33033,1.11183 0.18168,0.11229 0.32662,0.47884 0.32208,0.81457 -0.005,0.33573 0.23672,1.24541 0.53613,2.02153 0.29941,0.77611 0.55135,1.68892 0.55987,2.02847 0.009,0.33955 0.15933,0.61736 0.33516,0.61736 0.17582,0 0.43172,0.83344 0.56866,1.85208 0.13695,1.01865 0.37038,2.01084 0.51874,2.20486 0.24457,0.31985 0.685,2.91145 0.95925,5.64445 0.2895,2.8849 0.49365,13.67276 0.26884,14.20635 -0.14142,0.33567 -0.30227,1.24532 -0.35744,2.02143 -0.10412,1.46451 -0.42068,3.84384 -0.63362,4.7625 -0.83641,3.60827 -2.75459,9.28479 -3.29004,9.73626 -0.25287,0.21321 -0.37075,0.47668 -0.26194,0.58549 0.1088,0.1088 -0.53471,1.6267 -1.43004,3.37311 -1.56819,3.05888 -2.64716,4.68643 -4.60256,6.94263 -0.50448,0.58208 -1.31961,1.57427 -1.81141,2.20486 -0.49179,0.63059 -1.04906,1.14653 -1.23836,1.14653 -0.18931,0 -0.74494,0.47625 -1.23473,1.05833 -0.48979,0.58208 -1.05389,1.05833 -1.25357,1.05833 -0.19967,0 -0.90546,0.47625 -1.56841,1.05834 -0.66296,0.58208 -1.43798,1.05833 -1.72227,1.05833 -0.82895,0 -1.02531,0.0794 -1.39883,0.56543 -0.49224,0.64054 -5.86482,3.32958 -6.21721,3.1118 -0.15865,-0.0981 -0.77404,0.0728 -1.36752,0.37972 -0.59347,0.3069 -1.22217,0.46954 -1.39709,0.36144 -0.17492,-0.10811 -0.41089,-0.0463 -0.52437,0.13728 -0.11348,0.18361 -1.11663,0.4321 -2.22923,0.5522 -1.11261,0.1201 -2.26104,0.34453 -2.55208,0.49873 -1.03136,0.54645 -8.17684,0.69742 -11.99445,0.25342 -3.01534,-0.35069 -8.67871,-1.49615 -9.2877,-1.87851 -0.22753,-0.14285 -0.70511,-0.21172 -1.0613,-0.15304 -0.35618,0.0587 -0.91181,-0.12606 -1.23472,-0.41052 -0.32291,-0.28446 -1.10305,-0.62686 -1.73364,-0.76088 -0.63059,-0.13403 -1.14652,-0.38982 -1.14652,-0.56843 0,-0.17861 -0.11907,-0.29526 -0.26459,-0.25921 -0.4718,0.11686 -2.91041,-1.07765 -2.91041,-1.42562 0,-0.18577 -0.3175,-0.25473 -0.70556,-0.15325 -0.41009,0.10724 -0.70556,0.0108 -0.70556,-0.23023 0,-0.22811 -0.14076,-0.32775 -0.3128,-0.22142 -0.17204,0.10633 -0.50898,-0.0431 -0.74875,-0.33196 -0.23977,-0.2889 -0.64141,-0.52528 -0.89252,-0.52528 -0.25112,0 -0.50949,-0.11906 -0.57417,-0.26459 -0.0647,-0.14552 -0.8266,-0.72611 -1.69316,-1.2902 -2.01792,-1.31356 -8.47859,-7.5703 -8.47859,-8.21096 0,-0.26782 -0.23823,-0.57837 -0.5294,-0.6901 -0.29116,-0.11173 -0.84283,-0.86081 -1.22593,-1.66462 -0.3831,-0.80381 -0.84085,-1.6996 -1.01723,-1.99064 -0.28887,-0.47669 -0.57205,-1.11258 -1.49247,-3.35139 -0.15953,-0.38806 -0.57485,-1.8168 -0.92293,-3.17499 -1.33417,-5.20584 -0.58226,-20.75758 1.16557,-24.10756 0.26964,-0.51682 0.49124,-1.16036 0.49243,-1.4301 0.002,-0.52922 1.58919,-5.64971 2.19853,-7.09429 0.2046,-0.48507 0.57076,-1.35819 0.81368,-1.94028 0.24292,-0.58208 0.76103,-1.77271 1.15136,-2.64583 0.39034,-0.87313 1.07061,-2.46063 1.51172,-3.52778 0.4411,-1.06715 1.32948,-2.75046 1.97417,-3.74068 0.64469,-0.99022 1.17216,-1.94808 1.17216,-2.12856 0,-0.30365 2.06584,-3.73495 2.73196,-4.5377 0.16101,-0.19403 0.50527,-0.87043 0.76504,-1.5031 0.43713,-1.06467 0.40227,-1.25614 -0.46814,-2.57141 -0.51723,-0.7816 -1.37346,-1.69271 -1.90273,-2.02468 -0.52926,-0.33198 -1.48871,-1.00047 -2.1321,-1.48554 -0.64339,-0.48507 -1.31526,-0.90178 -1.49303,-0.92604 -0.17777,-0.0242 -0.4026,-0.0838 -0.49961,-0.13229 -0.097,-0.0485 -0.29545,-0.12175 -0.44097,-0.16276 -0.14552,-0.041 -0.50271,-0.17645 -0.79375,-0.30098 -0.94553,-0.40458 -4.71451,-1.30015 -5.47162,-1.30015 -0.4055,0 -0.88808,-0.14794 -1.07241,-0.32876 -1.40248,-1.37578 -22.44372,-1.38594 -23.92604,-0.0115 -0.16916,0.15685 -0.52635,0.20122 -0.79375,0.0986 -0.2674,-0.10261 -0.48618,-0.0108 -0.48618,0.20396 0,0.21478 -0.24028,0.39052 -0.53395,0.39052 -0.29368,0 -0.80961,0.14167 -1.14653,0.31482 -0.33692,0.17315 -1.00945,0.4895 -1.49452,0.70299 -1.27896,0.56292 -2.25237,1.21164 -2.57517,1.71622 -0.15516,0.24253 -0.41383,0.44097 -0.57482,0.44097 -0.75453,0 -5.66945,5.74044 -5.66945,6.6217 0,0.14854 -0.36582,0.82286 -0.81292,1.49849 -0.44711,0.67563 -0.98964,1.86342 -1.20562,2.63953 -0.21598,0.77611 -0.57114,2.04611 -0.78924,2.82222 -1.13083,4.02412 -1.19422,6.67832 -1.31855,55.20972 -0.0688,26.87285 -0.0387,49.21691 0.067,49.65348 l 0.19219,0.79375 38.71064,0.0278 c 21.29085,0.0153 38.5122,0.10792 38.26967,0.20578 -0.24254,0.0979 -0.44098,0.38469 -0.44098,0.63738 0,0.54455 -0.88563,2.31977 -1.3079,2.62163 -0.16274,0.11634 -0.57701,0.65315 -0.9206,1.1929 -0.34359,0.53976 -0.76255,0.89619 -0.93102,0.79207 -0.16848,-0.10412 -0.26355,0.0893 -0.21128,0.42973 0.0523,0.34048 -0.1998,0.99764 -0.56014,1.46037 -0.36034,0.46273 -0.65517,0.9924 -0.65517,1.17705 0,0.18465 -0.45557,0.99668 -1.01238,1.80451 -1.49347,2.16675 -3.22095,5.13318 -3.22095,5.53103 0,0.19111 -0.1504,0.34748 -0.33421,0.34748 -0.18382,0 -0.74935,0.83343 -1.25673,1.85208 -0.50738,1.01865 -1.38886,2.43809 -1.95884,3.15431 -0.56998,0.71623 -1.03633,1.40758 -1.03633,1.53634 0,0.12876 -0.48466,0.95224 -1.07702,1.82996 -0.92581,1.37177 -1.02745,1.73807 -0.72391,2.6088 0.19421,0.55712 0.24231,1.01778 0.10688,1.02368 -0.13542,0.006 0.0331,0.17339 0.37451,0.3722 0.34141,0.19881 0.84925,0.90835 1.12853,1.57677 0.27928,0.66842 0.67464,1.2153 0.87856,1.2153 0.20393,0 0.37389,0.19844 0.37769,0.44097 0.004,0.24254 0.63268,1.47285 1.39753,2.73403 0.76484,1.26118 1.80038,3.05521 2.3012,3.98673 0.50082,0.93151 1.5386,2.59839 2.30618,3.70416 0.76757,1.10578 1.3958,2.19571 1.39606,2.42207 2.5e-4,0.22637 0.13455,0.4645 0.29845,0.52917 0.1639,0.0647 0.52108,0.53336 0.79375,1.04152 0.27267,0.50816 0.85617,1.57972 1.29668,2.38125 l 0.80092,1.45732 H 265.9491 228.01939 l -0.0893,57.04714 c -0.0491,31.37593 0.0329,58.40312 0.18217,60.06042 0.48171,5.34762 0.88278,8.2589 1.43573,10.42162 0.29765,1.16416 0.70274,2.75553 0.90021,3.53638 0.40307,1.59385 2.82407,6.63034 3.27437,6.81176 0.16053,0.0647 0.29187,0.30993 0.29187,0.54499 0,0.23507 0.7814,1.27292 1.73644,2.30633 0.95504,1.03342 1.69544,2.05817 1.64532,2.27724 -0.0501,0.21906 -0.0202,0.26633 0.0664,0.10503 0.0866,-0.16129 0.57656,0.0972 1.08871,0.5744 0.51215,0.47721 1.88368,1.38426 3.04785,2.01567 1.16417,0.63141 2.31511,1.30518 2.55764,1.49728 0.24254,0.19209 0.44097,0.231 0.44097,0.0865 0,-0.14453 0.19844,-0.10693 0.44097,0.0836 0.92501,0.72649 3.37431,0.83097 18.87361,0.80507 l 15.9632,-0.0267 v 21.35305 21.35304 l -24.78264,-0.064 c -13.63045,-0.035 -25.57639,-0.1239 -26.54653,-0.1975 z"
         id="path130" /></g><path
       d="m 933.17697,-304.07741 30.16757,12.34723 -5.893,14.39816 -70.12979,-28.7033 20.16447,-49.26716 12.04744,4.93088 -14.27148,34.869 15.86736,6.49432 12.58776,-30.75524 12.04743,4.93087 z m -6.69939,-83.26605 65.18607,38.63732 -7.93252,13.38318 -65.18607,-38.63733 z m 59.78659,-6.36971 23.01233,19.33474 -10.00781,11.91129 -58.01689,-48.74533 26.14274,-31.11521 q 6.19529,-7.37365 13.43356,-7.92713 8.13293,-0.63117 15.42556,5.49603 10.53374,8.85041 6.03644,21.93574 6.8853,-3.75285 11.1476,-2.24509 3.0988,1.083 16.7279,11.84299 3.3903,2.71025 6.8102,1.43674 l 2.1878,1.83816 -10.7566,12.80261 q -4.82,-1.00864 -11.3023,-6.45505 -1.6206,-1.3616 -3.9024,-3.41695 -1.6206,-1.3616 -2.3498,-1.97432 -6.8875,-5.78681 -13.0828,1.58685 z m -9.96659,-8.37385 12.11825,-14.42319 q 3.81249,-4.53764 3.85172,-7.54572 -0.0255,-3.75363 -4.32005,-7.36187 -4.13249,-3.47209 -7.75329,-2.78206 -3.1054,0.57015 -6.8498,5.02675 l -12.11826,14.4232 z m 65.36022,-51.65517 11.8407,15.59294 32.703,-24.83341 7.8725,10.3672 -45.0931,34.24195 -45.8267,-60.3489 43.576,-33.08988 7.8724,10.3672 -31.1858,23.68134 10.3685,13.65436 28.9102,-21.95325 7.8725,10.3672 z m 99.643,-77.23997 -13.4915,6.12461 q -8.2194,-10.68098 -20.169,-5.25632 -8.9622,4.06849 -10.5433,13.38708 -1.3003,8.14506 3.4244,18.55281 5.3371,11.75691 13.3408,15.56212 6.9354,3.24412 14.6449,-0.25565 6.6494,-3.01856 9.0256,-8.28145 2.3762,-5.26288 0.1197,-12.02577 l 13.7806,-6.25585 q 5.0126,12.83408 -0.8436,23.7447 -4.9971,9.4746 -17.0431,14.943 -15.4189,6.99955 -28.799,0.0561 -11.5675,-6.02292 -18.5233,-21.34544 -7.962,-17.539 -2.6999,-31.55052 4.5343,-12.2864 18.0258,-18.41101 15.9971,-7.26203 29.0444,-0.28369 6.4535,3.46286 10.7065,11.2953 z m 42.3172,10.11307 5.7867,29.49427 -15.2664,2.99523 -14.589,-74.35877 39.8795,-7.82429 q 9.4507,-1.85419 15.434,2.25657 6.7288,4.61163 8.5626,13.95841 2.6488,13.50089 -9.0636,20.86782 7.716,1.39811 10.0888,5.24659 1.7333,2.78761 5.5942,19.71763 0.9393,4.2376 4.4012,5.39183 l 0.5502,2.80403 -16.4088,3.21937 q -3.1202,-3.80971 -4.7502,-12.11796 -0.4075,-2.07706 -0.8946,-5.10917 -0.4075,-2.07706 -0.5909,-3.01174 -1.7319,-8.82751 -11.1825,-6.97331 z m -2.5062,-12.77392 18.4858,-3.62688 q 5.8158,-1.14104 7.7338,-3.45866 2.3354,-2.93877 1.2555,-8.44298 -1.0392,-5.2965 -4.2915,-7.03112 -2.7757,-1.50457 -8.4877,-0.3839 l -18.4858,3.62688 z m 111.5145,19.1518 -28.3419,-1.09973 -5.6671,15.03153 -15.863,-0.61552 29.7995,-74.67717 17.2378,0.66886 23.2887,76.73711 -16.0745,-0.62373 z m -3.7254,-13.17181 -8.6861,-29.99258 -11.0898,29.22523 z m 108.1734,-0.27928 -14.2728,-3.97734 q 0.5663,-13.46551 -12.0753,-16.9883 -9.4813,-2.6421 -16.681,3.48162 -6.2304,5.40504 -9.2987,16.41549 -3.4659,12.43773 0.2211,20.49656 3.229,6.94243 11.3849,9.2152 7.0345,1.96026 12.2371,-0.54509 5.2026,-2.50536 7.8197,-9.13705 l 14.5787,4.06258 q -4.4069,13.05445 -15.9052,17.6507 -9.9173,4.04805 -22.6609,0.49685 -16.3117,-4.54554 -22.1013,-18.46383 -4.9924,-12.04815 -0.4753,-28.25798 5.1706,-18.55464 18.2064,-25.90854 11.3696,-6.49984 25.6424,-2.52249 16.9234,4.71599 22.4356,18.4471 2.7193,6.80038 0.9446,15.53452 z m 23.6446,39.11337 -12.2359,22.13758 -13.6161,-7.52587 36.6567,-66.32012 13.616,7.52587 -16.1269,29.17715 42.0621,-14.84216 16.1169,8.90817 -42.2595,13.8866 8.3817,53.96942 -16.3022,-9.01057 -5.4964,-41.24973 z m 72.3332,38.95141 -13.0347,14.60953 30.6405,27.33761 -8.6663,9.71336 -42.2492,-37.69491 50.4478,-56.54281 40.8277,36.42667 -8.6663,9.71336 -29.219,-26.06938 -11.4142,12.79321 27.0868,24.16702 -8.6663,9.71336 z m 50.8022,56.29454 -24.4651,17.46015 -9.0374,-12.66327 61.6796,-44.01925 23.608,33.07955 q 5.5947,7.83917 4.3246,14.98661 -1.4181,8.03318 -9.1711,13.56632 -11.1988,7.99233 -22.7481,0.37221 1.9162,7.60392 -0.6074,11.35527 -1.8219,2.7305 -15.6423,13.24384 -3.4704,2.6068 -3.0905,6.23629 l -2.3259,1.65995 -9.7137,-13.61086 q 2.1793,-4.41584 9.0709,-9.33419 1.7229,-1.22959 4.2826,-2.92635 1.7229,-1.22959 2.4982,-1.7829 7.3223,-5.22575 1.7276,-13.06492 z m 10.5958,-7.56197 10.9434,15.33376 q 3.4428,4.8241 6.346,5.61265 3.6412,0.91188 8.2069,-2.34653 4.3934,-3.13545 4.6286,-6.8139 0.2227,-3.14944 -3.1586,-7.88739 l -10.9434,-15.33376 z m 67.7719,104.82234 -5.6492,-13.46817 q 10.3514,-5.14519 4.4976,-19.10134 -2.3334,-5.56294 -5.9699,-7.93965 -3.5956,-2.27913 -7.4018,-0.68262 -3.7086,1.55556 -4.4168,5.06602 -0.7081,3.51045 1.1029,11.93213 l 2.5353,11.79034 q 2.1984,10.43974 -0.4489,16.71459 -2.6473,6.27484 -10.8453,9.71346 -11.2235,4.70764 -20.6816,-1.4246 -8.2837,-5.24765 -13.5644,-17.83746 -6.0176,-14.34653 -2.5332,-24.64503 3.0155,-8.95411 13.0174,-13.83796 l 5.8538,13.95615 q -10.7984,5.44746 -4.5352,20.37956 2.7837,6.63649 6.6815,9.36266 4.0364,2.78282 8.233,1.02257 4.099,-1.71931 5.0747,-5.68629 1.0166,-3.86939 -0.6463,-11.66456 l -2.2393,-10.53733 q -2.5101,-11.45662 -0.2375,-17.80385 2.4112,-6.29057 10.414,-9.64732 10.8331,-4.54389 19.7118,1.02799 7.7453,4.78488 12.6576,16.49633 5.9357,14.15134 2.4828,23.97758 -3.0816,8.5228 -13.093,12.8368 z"
       id="text1"
       style="font-weight:bold;font-size:105.833px;line-height:0;font-family:Almarai;-inkscape-font-specification:'Almarai Bold';text-align:center;letter-spacing:0px;text-anchor:middle;fill:#ffffff;stroke-width:0.264583"
       inkscape:label="FIRECRACKERS"
       transform="translate(-918.75632,-54.796853)"
       aria-label="FIRECRACKERS" /><circle
       style="fill:#ffffff;fill-opacity:1;stroke-width:0.264583"
       id="path5"
       cx="-17.719826"
       cy="-198.8716"
       r="16.162083"
       inkscape:label="dot-left" /><circle
       style="display:inline;fill:#ffffff;fill-opacity:1;stroke-width:0.264583"
       id="circle5"
       cx="711.81555"
       cy="-198.70653"
       r="16.162083"
       inkscape:label="dot-right" /><path
       style="font-weight:bold;font-size:103.105px;line-height:0;font-family:Almarai;-inkscape-font-specification:'Almarai Bold';text-align:center;letter-spacing:10.3105px;text-anchor:middle;fill:#ffffff;stroke-width:0.257763"
       d="m 1269.014,-132.92817 -7.6453,-12.24379 q 9.2608,-9.30774 2.4893,-20.15224 -5.0787,-8.13337 -14.2809,-8.46507 -8.0328,-0.211 -17.478,5.68679 -10.6695,6.66232 -13.3178,14.8799 -2.2434,7.11392 2.1253,14.11037 3.768,6.03444 9.1554,7.65419 5.3874,1.61975 11.6292,-1.42688 l 7.8091,12.50615 q -11.7515,6.487 -23.0395,2.23088 -9.791,-3.61068 -16.6171,-14.54263 -8.7375,-13.9929 -3.7481,-27.80521 4.3329,-11.94372 18.2384,-20.62657 15.9169,-9.93887 30.1234,-6.65422 12.447,2.80303 20.0923,15.04681 9.0651,14.51763 3.9993,28.01298 -2.5164,6.67663 -9.535,11.78854 z m 5.9357,32.49481 -13.8545,13.110547 27.4967,29.057013 -9.2113,8.716742 -37.9143,-40.065727 53.6207,-50.741365 36.6386,38.71773 -9.2114,8.716738 -26.221,-27.709008 -12.1321,11.48059 24.3077,25.686996 -9.2114,8.716742 z m 58.1988,91.3731866 4.9451,-58.8393296 -29.2705,41.809227 -12.416,-8.692449 42.3387,-60.475568 12.7539,8.928978 -4.8099,57.927095 28.7974,-41.133521 12.4161,8.692448 -42.3387,60.47556805 z m 88.6531,-22.5283926 -24.637,55.957801 -13.8715,-6.107304 24.637,-55.957801 -20.5713,-9.057089 5.1102,-11.606761 54.0705,23.806019 -5.1102,11.606761 z m 34.8969,45.414809 -6.4367,28.565606 -14.7857,-3.331675 16.2277,-72.017514 38.6239,8.70315 q 9.1531,2.062465 12.8705,8.078932 4.185,6.7559523 2.1452,15.80843316 -2.9464,13.07580584 -16.2828,15.03814884 6.3283,4.279592 6.9305,8.642883 0.4491,3.16622 -2.7649,19.775174 -0.8287,4.146572 1.8035,6.536419 l -0.6119,2.715744 -15.8922,-3.580983 q -1.2836,-4.622526 0.5296,-12.669176 0.4533,-2.011662 1.2111,-4.905908 0.4533,-2.011663 0.6573,-2.916911 1.9265,-8.549565 -7.2266,-10.612031 z m 2.7877,-12.3717243 17.9038,4.0342729 q 5.6327,1.2692094 8.2534,-0.042669 3.2371,-1.7014715 4.4383,-7.0323769 1.1559,-5.1297392 -1.0612,-7.9545081 -1.8828,-2.4323616 -7.4149,-3.6789066 l -17.9038,-4.034273 z m 100.8799,39.0888203 -27.629,-0.416978 -5.1726,14.770747 -15.464,-0.233383 27.2997,-73.419581 16.8042,0.25361 24.4532,74.200637 -15.6702,-0.236495 z m -3.9324,-12.742707 -9.152,-29.0108111 -10.1264,28.7198601 z m 46.1615,-50.23112 10.6576,60.205237 34.8236,-6.164502 2.2106,12.487764 -49.748,8.806431 -12.8682,-72.693001 z m 91.1009,-29.450951 q 14.1411,-6.755846 27.0114,-1.820697 13.9702,5.323844 21.3927,20.860377 7.3337,15.350467 2.7861,29.749647 -4.1547,13.0688317 -18.3887,19.869124 -14.3272,6.844738 -27.1045,1.865142 -14.059,-5.50991 -21.3927,-20.8603767 -7.3336,-15.3504663 -2.7861,-29.7496473 4.2478,-13.113278 18.4818,-19.913569 z m 5.6003,11.722174 q -8.9312,4.26685 -10.7145,13.688884 -1.4836,8.136132 3.0944,17.7185447 5.2447,10.9779095 13.8976,14.4999018 7.5086,3.040265 15.3234,-0.6932285 8.9312,-4.26684979 10.6215,-13.6444376 1.4835,-8.1361324 -3.0944,-17.7185444 -5.2447,-10.97791 -13.8976,-14.499902 -7.5087,-3.040265 -15.2304,0.648782 z m 91.6733,-25.345148 -23.0928,18.004055 20.6032,26.42666 -11.953,9.319001 -45.3905,-58.219965 11.953,-9.319 16.9897,21.79183 23.0116,-17.940661 -16.9898,-21.79183 12.0343,-9.382397 45.3905,58.219966 -11.953,9.319001 z m 6.6961,-62.924767 53.8795,50.466402 -10.3611,11.061861 -53.8796,-50.466403 z m 26.937,-36.70468 q 8.7363,-13.01107 22.3272,-15.31107 14.7354,-2.525 29.0305,7.0734 14.1238,9.48345 17.5354,24.19324 3.0729,13.36464 -5.7209,26.46131 -8.8512,13.18227 -22.3846,15.39667 -14.9066,2.41005 -29.0305,-7.0734 -14.1239,-9.48345 -17.5354,-24.19324 -3.0154,-13.45024 5.7783,-26.54691 z m 10.7855,7.24191 q -5.5176,8.21752 -2.2588,17.23613 2.8626,7.75906 11.6793,13.67903 10.1007,6.7821 19.3418,5.41141 8.011,-1.20318 12.8389,-8.39351 5.5177,-8.21752 2.2014,-17.15053 -2.8626,-7.75906 -11.6793,-13.67903 -10.1007,-6.78211 -19.3419,-5.41141 -8.0109,1.20318 -12.7814,8.30791 z"
       id="text2"
       transform="translate(-1202.2441,115.57256)"
       aria-label="CENTRAL OHIO"
       inkscape:label="CENTRAL OHIO" /></g></svg>
